mtllib link6_7.mtl
o mesh_0
usemtl material398
v 0.06278800219297409 0.0815889984369278 -0.0005000000237487257
v 0.06196700036525726 0.08154299855232239 -0.0005000000237487257
v 0.06196799874305725 0.08154399693012238 0
v 0.06382299959659576 0.0816269963979721 -0.0007379999733529985
v 0.06365600228309631 0.08161699771881104 -0.0013500000350177288
v 0.06322500109672546 0.08160600066184998 -0.0009270000155083835
v 0.06319700181484222 0.08160799741744995 -0.0001250000059371814
v 0.06319700181484222 0.08160799741744995 0
v 0.06422200053930283 0.08163599669933319 -0.0007960000075399876
v 0.06431999802589417 0.08163999766111374 -0.0002500000118743628
v 0.06477800011634827 0.08164499700069427 -0.0002500000118743628
v 0.06278800219297409 0.0815889984369278 0.0005000000237487257
v 0.06196700036525726 0.08154299855232239 0.0005000000237487257
v 0.06319700181484222 0.08160799741744995 0.0001250000059371814
v 0.06322500109672546 0.08160600066184998 0.0009270000155083835
v 0.06382299959659576 0.0816269963979721 0.0007379999733529985
v 0.06365600228309631 0.08161699771881104 0.0013500000350177288
v 0.06422200053930283 0.08163599669933319 0.0007949999999254942
v 0.06431999802589417 0.08163999766111374 0.0002500000118743628
v 0.06477800011634827 0.08164499700069427 0.0002500000118743628
vn -0.0559019198546307 0.9984342617726173 -0.002000068782614147
vn -0.0559019198546307 0.9984342617726173 -0.002000068782614147
vn -0.0559019198546307 0.9984342617726173 -0.002000068782614147
vn -0.033001148953510064 0.9994348209448849 -0.0064002227003444505
vn -0.033001148953510064 0.9994348209448849 -0.0064002227003444505
vn -0.033001148953510064 0.9994348209448849 -0.0064002227003444505
vn -0.042100226805810964 0.9991053851970979 -0.004000021632202428
vn -0.05180237784065332 0.9986458188636276 0.004800220437538776
vn -0.023699514768578532 0.9996795117695716 -0.008899817295028938
vn -0.022800823626961907 0.9997361061181702 -0.0028001010001145184
vn -0.012500141521032095 0.9999112890564391 -0.0046000521132678026
vn -0.05180237784065332 0.9986458188636276 -0.004800220437538776
vn -0.0559019198546307 0.9984342617726173 0.002000068782614147
vn -0.0453985859245772 0.9989688725911491 0.0003999875213136621
vn -0.042100226805810964 0.9991053851970979 0.004000021632202428
vn -0.03390062224933089 0.9994183595014896 0.003700067899321651
vn -0.033001148953510064 0.9994348209448849 0.0064002227003444505
vn -0.022800823626961907 0.9997361061181702 0.0028001010001145184
vn -0.022800823626961907 0.9997361061181702 0.0028001010001145184
vn -0.012500141521032095 0.9999112890564391 0.0046000521132678026
f 1//1 2//2 3//3
f 4//4 5//5 6//6
f 7//7 6//6 1//1
f 7//7 4//4 6//6
f 8//8 1//1 3//3
f 8//8 7//7 1//1
f 9//9 5//5 4//4
f 10//10 9//9 4//4
f 11//11 9//9 10//10
f 12//12 8//8 3//3
f 12//12 3//3 13//13
f 14//14 8//8 12//12
f 15//15 14//14 12//12
f 16//16 14//14 15//15
f 17//17 16//16 15//15
f 18//18 19//19 16//16
f 18//18 16//16 17//17
f 20//20 19//19 18//18
f 1//1 1//1 1//1
f 1//1 1//1 1//1
f 1//1 1//1 1//1
f 1//1 1//1 1//1
f 1//1 1//1 1//1
f 1//1 1//1 1//1
f 1//1 1//1 1//1
f 1//1 1//1 1//1
f 1//1 1//1 1//1
f 1//1 1//1 1//1
f 1//1 1//1 1//1
f 1//1 1//1 1//1
f 1//1 1//1 1//1
f 1//1 1//1 1//1
f 1//1 1//1 1//1
f 1//1 1//1 1//1
f 1//1 1//1 1//1
f 1//1 1//1 1//1
