mtllib link6_5.mtl
o mesh_0
usemtl material378
v 0.08743999898433685 0.07801900058984756 0.012085000053048134
v 0.0871409997344017 0.07757999747991562 0.010614000260829926
v 0.08720500022172928 0.07775399833917618 0.01203100010752678
v 0.08776500076055527 0.07819200307130814 0.011885000392794609
v 0.0874050036072731 0.07771500200033188 0.009242000058293343
v 0.08827300369739532 0.07816199958324432 0.012280000373721123
v 0.08802399784326553 0.0778999999165535 0.009217999875545502
v 0.08713799715042114 0.07742200046777725 0.00936300028115511
v 0.08770900219678879 0.07763899862766266 0.008818999864161015
v 0.08909499645233154 0.0770689994096756 0.009254000149667263
v 0.08868400007486343 0.07747700065374374 0.008856000378727913
v 0.08890900015830994 0.0775189995765686 0.009258000180125237
v 0.08818499743938446 0.07714799791574478 0.008472000248730183
v 0.08853399753570557 0.07708899676799774 0.008582999929785728
v 0.08837299793958664 0.07784999907016754 0.009217999875545502
v 0.08887600153684616 0.07705800235271454 0.008867000229656696
v 0.08733999729156494 0.0773250013589859 0.008853999897837639
v 0.08780600130558014 0.07721000164747238 0.00853899959474802
v 0.08865699917078018 0.07809100300073624 0.011940999887883663
v 0.0891600027680397 0.07737799733877182 0.011862000450491905
v 0.08743499964475632 0.0777679979801178 0.012443000450730324
v 0.08835099637508392 0.07766100019216537 0.012800999917089939
v 0.0887719988822937 0.07756199687719345 0.012620000168681145
v 0.08779100328683853 0.07774800062179565 0.012725000269711018
v 0.08902999758720398 0.07746800035238266 0.012310000136494637
v 0 0 0
v 0 0 0
v 0 0 0
v 0 0 0
v 0 0 0
v 0 0 0
v 0 0 0
v 0 0 0
vn -0.7422905709185496 0.6682915221949076 -0.04889938330722775
vn -0.7422905709185496 0.6682915221949076 -0.04889938330722775
vn -0.7422905709185496 0.6682915221949076 -0.04889938330722775
vn -0.5086990586878791 0.8566983924769481 -0.0853998361677506
vn -0.5086990586878791 0.8566983924769481 -0.0853998361677506
vn 0.030301194097009362 0.8062317823468382 0.5908232821835442
vn -0.1192025391323139 0.9865210636424491 -0.11210238915464864
vn -0.753457357471483 0.6525630864762763 -0.08039545161665536
vn -0.10789600846219696 0.8685678313249899 -0.4836820998810368
vn 0.8059728604570465 0.3363886716375173 -0.4870835757861612
vn 0.8059728604570465 0.3363886716375173 -0.4870835757861612
vn 0.8059728604570465 0.3363886716375173 -0.4870835757861612
vn 0.3378994129906888 0.45079919202973917 -0.8261985688476361
vn 0.3378994129906888 0.45079919202973917 -0.8261985688476361
vn 0.507812683274962 0.779519505196151 -0.3667091759471405
vn 0.8082565051639272 0.35738074701869693 -0.46797481077570047
vn -0.43479138936639866 0.42209163622575757 -0.795484191144676
vn -0.43479138936639866 0.42209163622575757 -0.795484191144676
vn 0.2989003402049494 0.9446010721628838 -0.13560015152681712
vn 0.9222808466056914 0.38049209059282413 -0.06799859543101729
vn -0.7275900880095865 0.5660923153965017 0.3874947151629682
vn 0.4397882524211794 0.4548878672903105 0.7743793135307773
vn 0.4397882524211794 0.4548878672903105 0.7743793135307773
vn -0.44508896030032935 0.6544837466200228 0.6111847861563552
vn 0.7653034873851595 0.3724017118136126 0.5250024164081569
vn 1 0 0
vn 1 0 0
vn 1 0 0
vn 1 0 0
vn 1 0 0
vn 1 0 0
vn 1 0 0
vn 1 0 0
f 1//1 2//2 3//3
f 4//4 5//5 1//1
f 1//1 5//5 2//2
f 6//6 7//7 4//4
f 4//4 7//7 5//5
f 8//8 2//2 5//5
f 5//5 7//7 9//9
f 10//10 11//11 12//12
f 13//13 11//11 14//14
f 11//11 15//15 12//12
f 16//16 11//11 10//10
f 14//14 11//11 16//16
f 9//9 7//7 15//15
f 11//11 13//13 9//9
f 17//17 9//9 18//18
f 18//18 9//9 13//13
f 11//11 9//9 15//15
f 8//8 5//5 17//17
f 17//17 5//5 9//9
f 6//6 19//19 7//7
f 10//10 12//12 20//20
f 12//12 19//19 20//20
f 15//15 19//19 12//12
f 7//7 19//19 15//15
f 21//21 1//1 3//3
f 1//1 6//6 4//4
f 6//6 22//22 23//23
f 23//23 19//19 6//6
f 24//24 6//6 21//21
f 21//21 6//6 1//1
f 6//6 24//24 22//22
f 25//25 20//20 23//23
f 20//20 19//19 23//23
f 1//1 1//1 1//1
f 1//1 1//1 1//1
f 1//1 1//1 1//1
f 1//1 1//1 1//1
f 1//1 1//1 1//1
f 1//1 1//1 1//1
f 1//1 1//1 1//1
f 1//1 1//1 1//1
f 1//1 1//1 1//1
f 1//1 1//1 1//1
f 1//1 1//1 1//1
f 1//1 1//1 1//1
f 1//1 1//1 1//1
f 1//1 1//1 1//1
f 1//1 1//1 1//1
f 1//1 1//1 1//1
