mtllib link3_2.mtl
o mesh_0
usemtl material238
v 0.06965900212526321 0.0004980000085197389 -0.05612900108098984
v 0.0700170025229454 0.0005000000237487257 -0.056738000363111496
v 0.069241002202034 0.0005000000237487257 -0.05587400123476982
v 0.052480001002550125 -0.0157919991761446 -0.09102600067853928
v 0.052618999034166336 -0.011361000128090382 -0.09104400128126144
v 0.05480499938130379 -0.005138999782502651 -0.09092400223016739
v 0.051568999886512756 -0.015468000434339046 -0.09104499965906143
v 0.053711000829935074 -0.003693999955430627 -0.09104300290346146
v 0.05383000150322914 -0.0005000000237487257 -0.09104099869728088
v 0.05331199988722801 -0.007524999789893627 -0.09104199707508087
v 0.05530200153589249 -0.018191000446677208 -0.050592999905347824
v 0.0593160018324852 -0.018218999728560448 -0.05256899818778038
v 0.057133998721838 0.0005000000237487257 -0.0515189990401268
v 0.06535100191831589 -0.018379999324679375 -0.0550680011510849
v 0.0624379999935627 0.0005000000237487257 -0.05380599945783615
v 0.04946599900722504 0.0005000000237487257 -0.04695599898695946
v 0.04691699892282486 -0.0005009999731555581 -0.04504099860787392
v 0.04676400125026703 -0.0038389998953789473 -0.04492799937725067
v 0.04849100112915039 -0.01817999966442585 -0.04627799987792969
v 0.05303199961781502 0.0005000000237487257 -0.049268998205661774
v 0.05422800034284592 -0.018369000405073166 -0.05017000064253807
v 0.06920299679040909 -0.005727999843657017 -0.056230999529361725
v 0.0669649988412857 0.0005000000237487257 -0.05527300015091896
v 0.04603400081396103 -0.008303999900817871 -0.04434699937701225
v 0.06855300068855286 -0.011101000010967255 -0.05772300064563751
v 0.045054998248815536 -0.01191100012511015 -0.04353199899196625
v 0.043797001242637634 -0.015178999863564968 -0.04240100085735321
v 0.042238999158144 -0.018327999860048294 -0.04106999933719635
v 0.045976001769304276 -0.018352000042796135 -0.044482000172138214
v 0.044112998992204666 -0.01839900016784668 -0.04916900023818016
v 0.04615100100636482 -0.018397999927401543 -0.05922900140285492
v 0.057055000215768814 -0.01836800016462803 -0.0516510009765625
v 0.06250900030136108 -0.018362000584602356 -0.060674998909235
v 0.065761998295784 -0.018373999744653702 -0.056317999958992004
v 0.04766099900007248 -0.01839599944651127 -0.06781399995088577
v 0.05756799876689911 -0.0183470007032156 -0.06921499967575073
v 0.05035199970006943 -0.018384000286459923 -0.08841300010681152
v 0.04903100058436394 -0.018397999927401543 -0.07717599719762802
v 0.06769900023937225 0.0005000000237487257 -0.05926499888300896
v 0.06954800337553024 0.0005000000237487257 -0.058083001524209976
v 0.06972400099039078 -0.003662999952211976 -0.058058999478816986
v 0.06358399987220764 0.0004990000161342323 -0.06317800283432007
v 0.05837300047278404 0.0005000000237487257 -0.07294200360774994
v 0.05624600127339363 0.0005000000237487257 -0.0812940001487732
v 0.05726899951696396 0.0005000000237487257 -0.07653199881315231
v 0.05190499871969223 -0.01820399984717369 -0.08907099813222885
v 0.05314499884843826 -0.014037000015377998 -0.09089300036430359
v 0.05427199974656105 -0.009229999966919422 -0.0908460021018982
v 0.0654670000076294 0.0004990000161342323 -0.06114799901843071
v 0.054999999701976776 -0.0026740001048892736 -0.09090600162744522
v 0.055084001272916794 0.0005000000237487257 -0.09090500324964523
v 0.05557199940085411 0.0005000000237487257 -0.08589299768209457
v 0.06895899772644043 -0.008953000418841839 -0.0580190010368824
v 0.06931799650192261 -0.006455000024288893 -0.058212000876665115
v 0.06149600073695183 0.0005000000237487257 -0.0661109983921051
v 0.05965400114655495 0.0005000000237487257 -0.06962200254201889
v 0.050898000597953796 -0.017319999635219574 -0.09035100042819977
v 0 0 0
v 0 0 0
v 0 0 0
v 0 0 0
v 0 0 0
v 0 0 0
v 0 0 0
v 0 0 0
v 0 0 0
v 0 0 0
v 0 0 0
v 0 0 0
v 0 0 0
v 0 0 0
v 0 0 0
v 0 0 0
v 0 0 0
v 0 0 0
v 0 0 0
v 0 0 0
v 0 0 0
v 0 0 0
v 0 0 0
v 0 0 0
v 0 0 0
v 0 0 0
v 0 0 0
v 0 0 0
v 0 0 0
v 0 0 0
v 0 0 0
v 0 0 0
v 0 0 0
v 0 0 0
v 0 0 0
v 0 0 0
v 0 0 0
v 0 0 0
v 0 0 0
v 0 0 0
v 0 0 0
v 0 0 0
v 0 0 0
v 0 0 0
v 0 0 0
v 0 0 0
v 0 0 0
v 0 0 0
v 0 0 0
v 0 0 0
v 0 0 0
v 0 0 0
v 0 0 0
v 0 0 0
v 0 0 0
v 0 0 0
v 0 0 0
v 0 0 0
v 0 0 0
v 0 0 0
v 0 0 0
v 0 0 0
v 0 0 0
v 0 0 0
v 0 0 0
v 0 0 0
v 0 0 0
v 0 0 0
v 0 0 0
v 0 0 0
v 0 0 0
v 0 0 0
v 0 0 0
v 0 0 0
v 0 0 0
v 0 0 0
v 0 0 0
v 0 0 0
v 0 0 0
v 0 0 0
v 0 0 0
v 0 0 0
v 0 0 0
v 0 0 0
v 0 0 0
v 0 0 0
v 0 0 0
v 0 0 0
v 0 0 0
v 0 0 0
v 0 0 0
v 0 0 0
v 0 0 0
v 0 0 0
v 0 0 0
v 0 0 0
v 0 0 0
v 0 0 0
v 0 0 0
v 0 0 0
v 0 0 0
v 0 0 0
v 0 0 0
v 0 0 0
v 0 0 0
v 0 0 0
v 0 0 0
v 0 0 0
v 0 0 0
v 0 0 0
v 0 0 0
v 0 0 0
v 0 0 0
v 0 0 0
v 0 0 0
v 0 0 0
v 0 0 0
v 0 0 0
v 0 0 0
v 0 0 0
v 0 0 0
v 0 0 0
v 0 0 0
v 0 0 0
v 0 0 0
v 0 0 0
v 0 0 0
v 0 0 0
v 0 0 0
v 0 0 0
vn 0.011699635820925149 0.9998688345715503 0.011199650627931367
vn 0.00039999992937121524 0.9999998750000254 -0.0002999999834081993
vn 0.011699635820925149 0.9998688345715503 0.011199650627931367
vn 0.010500369368656564 -0.0044001549471462485 -0.9999351883395058
vn 0.010500369368656564 -0.0044001549471462485 -0.9999351883395058
vn 0.9916182404277882 -0.07760143470899317 -0.10330190018583056
vn 0.019000168715626136 -0.004600041038107275 -0.9998088983456916
vn -0.004999934665999716 0.0009999870030491357 -0.9999870002551681
vn -0.004999934665999716 0.0009999870030491357 -0.9999870002551681
vn 0.012900201036055636 -0.0016000248011428066 -0.9999155087975509
vn 0.44120514511622855 0.05830068156916233 0.8955104971196813
vn 0.44120514511622855 0.05830068156916233 0.8955104971196813
vn 0.4552050176583864 -0.025900287233312513 0.8900098690575627
vn -0.002299989350474031 -0.9999953550321257 -0.001999990790157993
vn 0.30770832356070854 -0.052601419484780386 0.9500256198017212
vn 0.5959228247002103 -0.0042001604820989585 0.803030725223666
vn 0.6203920665367892 -0.0016999782046872116 0.7842899934669036
vn 0.6203920665367892 -0.0016999782046872116 0.7842899934669036
vn 0.5630288025268168 0.028601459656845175 0.8259422038076979
vn 0.48039365614456986 -0.04319943187028124 0.8759884384066595
vn 0.00269998498326111 -0.9999943550467041 -0.001999988954099927
vn 0.25811024952622424 -0.05690225838085244 0.9644382987421585
vn 0.2549911732089453 -0.05519809189773023 0.9653665999175521
vn 0.6278964699584284 -0.0013999919942529828 0.7782956141699376
vn 0.6702908149655594 -0.22429692317368952 -0.7073903544915087
vn 0.6343935239102394 -0.0052999459170283494 0.772992087536493
vn 0.6642244964970053 0.0029001067934062443 0.7475275296829453
vn 0.6542062093434653 -0.0037000351190006396 0.7563071766131617
vn 0.0018999161851859798 -0.9999558779208656 0.009199594012796972
vn 0.0018999161851859798 -0.9999558779208656 0.009199594012796972
vn 0.002999986128821484 -0.9999953750320646 0.0004999977075394682
vn 0.0013999961313770363 -0.9999972150113713 0.0018999948245644002
vn -0.002299989350474031 -0.9999953550321257 -0.001999990790157993
vn 0.0014999869331120273 -0.9999912701149006 -0.003899965793260634
vn 0.0013999985926898865 -0.9999990150014955 0.0000999998984384265
vn 0.0036998347523102496 -0.9999553129892983 -0.008699611903989973
vn 0.002699989135473988 -0.9999959500244447 -0.0008999963202836682
vn 0.009200354336414331 -0.9999384533657608 0.00620023875143911
vn 0.5369098821837734 0.08230152041354787 -0.8396155299606033
vn 0.00039999992937121524 0.9999998750000254 -0.0002999999834081993
vn 0.5962123282981483 -0.013300275448327434 -0.8027166139169537
vn 0.8147116130508074 0.08360118986532854 -0.5738081810267721
vn 0.9547710782030553 0.04769855248896094 -0.29349111795322325
vn 0.9894302765538664 -0.0012000367615607726 -0.1450044404503198
vn 0.9588701447367846 0.06109809698580393 -0.27719139250195224
vn 0.8754103915453337 -0.4618054997960467 -0.1428017042355212
vn 0.9574737794352463 -0.2883921041531075 0.008599764887974556
vn 0.9856052828492521 -0.13040070015790925 -0.10760057536078901
vn 0.7303982748351975 0.08589978996842443 -0.6775983959552649
vn 0.9944602572470816 -0.02619895266661555 -0.10179593132950274
vn 0.0000999996322662092 0.9999963500196922 0.002699990253086586
vn 0.9951030498890119 -0.01950005978534168 -0.09690029809012218
vn 0.6322817996905439 -0.14949569565918494 -0.7601781125232843
vn 0.5998345536460273 -0.043402499893318784 -0.798946012728821
vn 0.8833783038232657 0.07009827907604778 -0.46338860970561946
vn 0.9314425264080382 0.057502629054852726 -0.35931638934286214
vn -0.042399901388460615 -0.49789887069862754 -0.8661979929088267
vn 1 0 0
vn 1 0 0
vn 1 0 0
vn 1 0 0
vn 1 0 0
vn 1 0 0
vn 1 0 0
vn 1 0 0
vn 1 0 0
vn 1 0 0
vn 1 0 0
vn 1 0 0
vn 1 0 0
vn 1 0 0
vn 1 0 0
vn 1 0 0
vn 1 0 0
vn 1 0 0
vn 1 0 0
vn 1 0 0
vn 1 0 0
vn 1 0 0
vn 1 0 0
vn 1 0 0
vn 1 0 0
vn 1 0 0
vn 1 0 0
vn 1 0 0
vn 1 0 0
vn 1 0 0
vn 1 0 0
vn 1 0 0
vn 1 0 0
vn 1 0 0
vn 1 0 0
vn 1 0 0
vn 1 0 0
vn 1 0 0
vn 1 0 0
vn 1 0 0
vn 1 0 0
vn 1 0 0
vn 1 0 0
vn 1 0 0
vn 1 0 0
vn 1 0 0
vn 1 0 0
vn 1 0 0
vn 1 0 0
vn 1 0 0
vn 1 0 0
vn 1 0 0
vn 1 0 0
vn 1 0 0
vn 1 0 0
vn 1 0 0
vn 1 0 0
vn 1 0 0
vn 1 0 0
vn 1 0 0
vn 1 0 0
vn 1 0 0
vn 1 0 0
vn 1 0 0
vn 1 0 0
vn 1 0 0
vn 1 0 0
vn 1 0 0
vn 1 0 0
vn 1 0 0
vn 1 0 0
vn 1 0 0
vn 1 0 0
vn 1 0 0
vn 1 0 0
vn 1 0 0
vn 1 0 0
vn 1 0 0
vn 1 0 0
vn 1 0 0
vn 1 0 0
vn 1 0 0
vn 1 0 0
vn 1 0 0
vn 1 0 0
vn 1 0 0
vn 1 0 0
vn 1 0 0
vn 1 0 0
vn 1 0 0
vn 1 0 0
vn 1 0 0
vn 1 0 0
vn 1 0 0
vn 1 0 0
vn 1 0 0
vn 1 0 0
vn 1 0 0
vn 1 0 0
vn 1 0 0
vn 1 0 0
vn 1 0 0
vn 1 0 0
vn 1 0 0
vn 1 0 0
vn 1 0 0
vn 1 0 0
vn 1 0 0
vn 1 0 0
vn 1 0 0
vn 1 0 0
vn 1 0 0
vn 1 0 0
vn 1 0 0
vn 1 0 0
vn 1 0 0
vn 1 0 0
vn 1 0 0
vn 1 0 0
vn 1 0 0
vn 1 0 0
vn 1 0 0
vn 1 0 0
vn 1 0 0
vn 1 0 0
vn 1 0 0
vn 1 0 0
vn 1 0 0
vn 1 0 0
vn 1 0 0
f 1//1 2//2 3//3
f 4//4 5//5 6//6
f 4//4 7//7 5//5
f 8//8 9//9 6//6
f 6//6 10//10 8//8
f 6//6 5//5 10//10
f 11//11 12//12 13//13
f 13//13 14//14 15//15
f 16//16 17//17 18//18
f 19//19 20//20 16//16
f 21//21 11//11 20//20
f 22//22 3//3 23//23
f 18//18 19//19 16//16
f 19//19 21//21 20//20
f 15//15 22//22 23//23
f 24//24 19//19 18//18
f 13//13 12//12 14//14
f 14//14 25//25 22//22
f 11//11 13//13 20//20
f 26//26 19//19 24//24
f 27//27 19//19 26//26
f 15//15 14//14 22//22
f 28//28 19//19 27//27
f 29//29 28//28 30//30
f 21//21 29//29 30//30
f 31//31 21//21 30//30
f 32//32 21//21 31//31
f 33//33 14//14 32//32
f 33//33 34//34 14//14
f 33//33 32//32 31//31
f 33//33 31//31 35//35
f 36//36 33//33 35//35
f 37//37 36//36 35//35
f 37//37 35//35 38//38
f 39//39 40//40 41//41
f 42//42 36//36 43//43
f 36//36 44//44 45//45
f 46//46 47//47 48//48
f 46//46 4//4 47//47
f 39//39 42//42 49//49
f 46//46 48//48 36//36
f 41//41 42//42 39//39
f 36//36 45//45 43//43
f 50//50 51//51 52//52
f 36//36 42//42 33//33
f 53//53 42//42 41//41
f 53//53 41//41 54//54
f 55//55 43//43 56//56
f 37//37 46//46 36//36
f 44//44 50//50 52//52
f 25//25 42//42 53//53
f 33//33 42//42 25//25
f 34//34 33//33 25//25
f 36//36 6//6 50//50
f 36//36 50//50 44//44
f 42//42 43//43 55//55
f 48//48 6//6 36//36
f 46//46 57//57 4//4
f 25//25 14//14 34//34
f 2//2 54//54 41//41
f 40//40 2//2 41//41
f 1//1 25//25 2//2
f 1//1 22//22 25//25
f 54//54 2//2 25//25
f 53//53 54//54 25//25
f 22//22 1//1 3//3
f 12//12 11//11 32//32
f 28//28 29//29 19//19
f 32//32 14//14 12//12
f 21//21 32//32 11//11
f 29//29 21//21 19//19
f 6//6 47//47 4//4
f 50//50 6//6 51//51
f 6//6 48//48 47//47
f 1//1 1//1 1//1
f 1//1 1//1 1//1
f 1//1 1//1 1//1
f 1//1 1//1 1//1
f 1//1 1//1 1//1
f 1//1 1//1 1//1
f 1//1 1//1 1//1
f 1//1 1//1 1//1
f 1//1 1//1 1//1
f 1//1 1//1 1//1
f 1//1 1//1 1//1
f 1//1 1//1 1//1
f 1//1 1//1 1//1
f 1//1 1//1 1//1
f 1//1 1//1 1//1
f 1//1 1//1 1//1
f 1//1 1//1 1//1
f 1//1 1//1 1//1
f 1//1 1//1 1//1
f 1//1 1//1 1//1
f 1//1 1//1 1//1
f 1//1 1//1 1//1
f 1//1 1//1 1//1
f 1//1 1//1 1//1
f 1//1 1//1 1//1
f 1//1 1//1 1//1
f 1//1 1//1 1//1
f 1//1 1//1 1//1
f 1//1 1//1 1//1
f 1//1 1//1 1//1
f 1//1 1//1 1//1
f 1//1 1//1 1//1
f 1//1 1//1 1//1
f 1//1 1//1 1//1
f 1//1 1//1 1//1
f 1//1 1//1 1//1
f 1//1 1//1 1//1
f 1//1 1//1 1//1
f 1//1 1//1 1//1
f 1//1 1//1 1//1
f 1//1 1//1 1//1
f 1//1 1//1 1//1
f 1//1 1//1 1//1
f 1//1 1//1 1//1
f 1//1 1//1 1//1
f 1//1 1//1 1//1
f 1//1 1//1 1//1
f 1//1 1//1 1//1
f 1//1 1//1 1//1
f 1//1 1//1 1//1
f 1//1 1//1 1//1
f 1//1 1//1 1//1
f 1//1 1//1 1//1
f 1//1 1//1 1//1
f 1//1 1//1 1//1
f 1//1 1//1 1//1
f 1//1 1//1 1//1
f 1//1 1//1 1//1
f 1//1 1//1 1//1
f 1//1 1//1 1//1
f 1//1 1//1 1//1
f 1//1 1//1 1//1
f 1//1 1//1 1//1
f 1//1 1//1 1//1
f 1//1 1//1 1//1
f 1//1 1//1 1//1
f 1//1 1//1 1//1
f 1//1 1//1 1//1
f 1//1 1//1 1//1
f 1//1 1//1 1//1
f 1//1 1//1 1//1
f 1//1 1//1 1//1
f 1//1 1//1 1//1
f 1//1 1//1 1//1
f 1//1 1//1 1//1
f 1//1 1//1 1//1
f 1//1 1//1 1//1
f 1//1 1//1 1//1
f 1//1 1//1 1//1
f 1//1 1//1 1//1
f 1//1 1//1 1//1
f 1//1 1//1 1//1
f 1//1 1//1 1//1
f 1//1 1//1 1//1
f 1//1 1//1 1//1
f 1//1 1//1 1//1
f 1//1 1//1 1//1
f 1//1 1//1 1//1
f 1//1 1//1 1//1
f 1//1 1//1 1//1
f 1//1 1//1 1//1
f 1//1 1//1 1//1
f 1//1 1//1 1//1
f 1//1 1//1 1//1
f 1//1 1//1 1//1
f 1//1 1//1 1//1
f 1//1 1//1 1//1
f 1//1 1//1 1//1
f 1//1 1//1 1//1
f 1//1 1//1 1//1
f 1//1 1//1 1//1
f 1//1 1//1 1//1
f 1//1 1//1 1//1
f 1//1 1//1 1//1
f 1//1 1//1 1//1
f 1//1 1//1 1//1
f 1//1 1//1 1//1
f 1//1 1//1 1//1
f 1//1 1//1 1//1
f 1//1 1//1 1//1
f 1//1 1//1 1//1
f 1//1 1//1 1//1
f 1//1 1//1 1//1
f 1//1 1//1 1//1
f 1//1 1//1 1//1
f 1//1 1//1 1//1
f 1//1 1//1 1//1
f 1//1 1//1 1//1
f 1//1 1//1 1//1
f 1//1 1//1 1//1
f 1//1 1//1 1//1
f 1//1 1//1 1//1
f 1//1 1//1 1//1
f 1//1 1//1 1//1
f 1//1 1//1 1//1
f 1//1 1//1 1//1
f 1//1 1//1 1//1
f 1//1 1//1 1//1
f 1//1 1//1 1//1
f 1//1 1//1 1//1
f 1//1 1//1 1//1
f 1//1 1//1 1//1
f 1//1 1//1 1//1
f 1//1 1//1 1//1
f 1//1 1//1 1//1
f 1//1 1//1 1//1
f 1//1 1//1 1//1
f 1//1 1//1 1//1
f 1//1 1//1 1//1
f 1//1 1//1 1//1
f 1//1 1//1 1//1
f 1//1 1//1 1//1
f 1//1 1//1 1//1
f 1//1 1//1 1//1
f 1//1 1//1 1//1
f 1//1 1//1 1//1
f 1//1 1//1 1//1
f 1//1 1//1 1//1
f 1//1 1//1 1//1
f 1//1 1//1 1//1
f 1//1 1//1 1//1
f 1//1 1//1 1//1
f 1//1 1//1 1//1
f 1//1 1//1 1//1
f 1//1 1//1 1//1
f 1//1 1//1 1//1
f 1//1 1//1 1//1
f 1//1 1//1 1//1
f 1//1 1//1 1//1
f 1//1 1//1 1//1
f 1//1 1//1 1//1
f 1//1 1//1 1//1
f 1//1 1//1 1//1
f 1//1 1//1 1//1
f 1//1 1//1 1//1
f 1//1 1//1 1//1
f 1//1 1//1 1//1
f 1//1 1//1 1//1
f 1//1 1//1 1//1
f 1//1 1//1 1//1
f 1//1 1//1 1//1
f 1//1 1//1 1//1
f 1//1 1//1 1//1
f 1//1 1//1 1//1
f 1//1 1//1 1//1
f 1//1 1//1 1//1
f 1//1 1//1 1//1
f 1//1 1//1 1//1
f 1//1 1//1 1//1
f 1//1 1//1 1//1
f 1//1 1//1 1//1
f 1//1 1//1 1//1
f 1//1 1//1 1//1
f 1//1 1//1 1//1
f 1//1 1//1 1//1
f 1//1 1//1 1//1
f 1//1 1//1 1//1
f 1//1 1//1 1//1
f 1//1 1//1 1//1
f 1//1 1//1 1//1
f 1//1 1//1 1//1
f 1//1 1//1 1//1
f 1//1 1//1 1//1
f 1//1 1//1 1//1
f 1//1 1//1 1//1
f 1//1 1//1 1//1
f 1//1 1//1 1//1
f 1//1 1//1 1//1
f 1//1 1//1 1//1
f 1//1 1//1 1//1
f 1//1 1//1 1//1
f 1//1 1//1 1//1
f 1//1 1//1 1//1
f 1//1 1//1 1//1
f 1//1 1//1 1//1
f 1//1 1//1 1//1
f 1//1 1//1 1//1
f 1//1 1//1 1//1
f 1//1 1//1 1//1
f 1//1 1//1 1//1
f 1//1 1//1 1//1
f 1//1 1//1 1//1
f 1//1 1//1 1//1
f 1//1 1//1 1//1
f 1//1 1//1 1//1
f 1//1 1//1 1//1
f 1//1 1//1 1//1
f 1//1 1//1 1//1
f 1//1 1//1 1//1
f 1//1 1//1 1//1
f 1//1 1//1 1//1
f 1//1 1//1 1//1
f 1//1 1//1 1//1
f 1//1 1//1 1//1
f 1//1 1//1 1//1
f 1//1 1//1 1//1
f 1//1 1//1 1//1
f 1//1 1//1 1//1
f 1//1 1//1 1//1
f 1//1 1//1 1//1
f 1//1 1//1 1//1
f 1//1 1//1 1//1
f 1//1 1//1 1//1
f 1//1 1//1 1//1
f 1//1 1//1 1//1
f 1//1 1//1 1//1
f 1//1 1//1 1//1
f 1//1 1//1 1//1
f 1//1 1//1 1//1
f 1//1 1//1 1//1
f 1//1 1//1 1//1
f 1//1 1//1 1//1
f 1//1 1//1 1//1
f 1//1 1//1 1//1
f 1//1 1//1 1//1
f 1//1 1//1 1//1
f 1//1 1//1 1//1
f 1//1 1//1 1//1
f 1//1 1//1 1//1
f 1//1 1//1 1//1
f 1//1 1//1 1//1
f 1//1 1//1 1//1
f 1//1 1//1 1//1
f 1//1 1//1 1//1
f 1//1 1//1 1//1
f 1//1 1//1 1//1
f 1//1 1//1 1//1
