mtllib link6_11.mtl
o mesh_0
usemtl material428
v 0.08877000212669373 0.07661399990320206 0.0018100000452250242
v 0.08719699829816818 0.07701899856328964 0.004923999775201082
v 0.08890700340270996 0.07671800255775452 0.004923999775201082
v 0.09050100296735764 0.07632999867200851 -0.0008709999965503812
v 0.0870790034532547 0.07691200077533722 -0.001601999974809587
v 0.08936599642038345 0.07649900019168854 -0.0004529999860096723
v 0.08848100155591965 0.07679300010204315 -0.004980999976396561
v 0.08715499937534332 0.07692199945449829 -0.0025770000647753477
v 0.09087599813938141 0.07637099921703339 -0.004095999989658594
v 0.08593399822711945 0.07712800055742264 0.0011050000321120024
v 0.08837900310754776 0.07670000195503235 0.0025309999473392963
v 0.08857999742031097 0.07664500176906586 0.0017579999985173345
v 0.085207998752594 0.07727299630641937 -0.00072900002123788
v 0.08342500030994415 0.07768499851226807 -0.0017109999898821115
v 0.08534400165081024 0.07724100351333618 0.00006500000017695129
v 0.09029500186443329 0.07635299861431122 -0.000097999996796716
v 0.09280800074338913 0.07603000104427338 0.0012939999578520656
v 0.08953099697828293 0.07647299766540527 -0.00030499999411404133
v 0.08908700197935104 0.07654500007629395 0.0006019999855197966
v 0.08314699679613113 0.07773400098085403 0.0004360000020824373
v 0.09208600223064423 0.07615700364112854 0.002867999952286482
v 0.09231600165367126 0.07611700147390366 0.0024999999441206455
v 0.08813600242137909 0.07670299708843231 0.0004250000056345016
v 0.08522800356149673 0.07736700028181076 -0.004095999989658594
v 0.08848100155591965 0.07679300010204315 0.004980999976396561
v 0.0851840004324913 0.0772780030965805 0.0006799999973736703
v 0.08538399636745453 0.0772780030965805 0.00279600010253489
v 0.0857739970088005 0.0771699994802475 0.0017190000507980585
v 0.09121699631214142 0.07631099969148636 -0.003831000067293644
v 0.09231600165367126 0.07611600309610367 -0.0024999999441206455
v 0.09153400361537933 0.07625500112771988 -0.0035359999164938927
v 0.08804299682378769 0.07671999931335449 0.0005249999812804163
v 0.0918240025639534 0.07620400190353394 0.0032140000257641077
v 0.08314699679613113 0.07773400098085403 -0.0004360000020824373
v 0.08312799781560898 0.0777370035648346 0
v 0.08932700008153915 0.07664400339126587 -0.00482999999076128
v 0.08973599970340729 0.0765720009803772 -0.004699000157415867
v 0.08890700340270996 0.07671800255775452 -0.004923999775201082
v 0.08677799999713898 0.07709400355815887 0.00482900021597743
v 0.08693499863147736 0.07694199681282043 -0.0017579999985173345
v 0.09280800074338913 0.07603000104427338 -0.0012939999578520656
v 0.09290099889039993 0.07601399719715118 -0.0008679999737069011
v 0.09153400361537933 0.07625400274991989 0.0035359999164938927
v 0.09290099889039993 0.07601399719715118 0.0008679999737069011
v 0.09295699745416641 0.07600399851799011 -0.0004360000020824373
v 0.08654700219631195 0.07699800282716751 -0.00036299999919719994
v 0.08605799823999405 0.07710299640893936 -0.001230000052601099
v 0.08661899715662003 0.07698500156402588 0.00013699999544769526
v 0.08488699793815613 0.07742699980735779 0.0038300000596791506
v 0.08456999808549881 0.07748299837112427 0.0035359999164938927
v 0.08427999913692474 0.07753399759531021 0.0032140000257641077
v 0.0840189978480339 0.07757999747991562 0.002867999952286482
v 0.08342500030994415 0.07768499851226807 0.0017099999822676182
v 0.08358900249004364 0.07765600085258484 0.002113000024110079
v 0.08522800356149673 0.07736700028181076 0.004095999989658594
v 0.08558999747037888 0.07730299979448318 0.0043299999088048935
v 0.08378800004720688 0.07762099802494049 0.0024999999441206455
v 0.0840189978480339 0.07757999747991562 -0.002867999952286482
v 0.08378800004720688 0.07762099802494049 -0.0024999999441206455
v 0.08358900249004364 0.07765600085258484 -0.002113000024110079
v 0.0856970027089119 0.07716800272464752 0.00013699999544769526
v 0.09013299643993378 0.0765020027756691 0.004532000049948692
v 0.09051399677991867 0.07643499970436096 0.0043299999088048935
v 0.08719699829816818 0.07701899856328964 -0.004923999775201082
v 0.08677799999713898 0.07709400355815887 -0.00482999999076128
v 0.08636800199747086 0.07716599851846695 -0.004699000157415867
v 0 0 0
v 0 0 0
v 0 0 0
v 0 0 0
v 0 0 0
v 0 0 0
v 0 0 0
v 0 0 0
v 0 0 0
v 0 0 0
v 0 0 0
v 0 0 0
v 0 0 0
v 0 0 0
v 0 0 0
v 0 0 0
v 0 0 0
v 0 0 0
v 0 0 0
v 0 0 0
v 0 0 0
v 0 0 0
v 0 0 0
v 0 0 0
v 0 0 0
v 0 0 0
v 0 0 0
v 0 0 0
v 0 0 0
v 0 0 0
v 0 0 0
v 0 0 0
v 0 0 0
v 0 0 0
v 0 0 0
v 0 0 0
v 0 0 0
v 0 0 0
v 0 0 0
v 0 0 0
v 0 0 0
v 0 0 0
v 0 0 0
vn 0.1517045366564874 0.9883295412819232 -0.013800412577311355
vn 0.17909371838846852 0.9823654882365834 -0.053698115008732485
vn 0.1544961806571845 0.9844756889797214 -0.08329794697497223
vn 0.14159314589798835 0.9897520720676652 0.018499104639789394
vn 0.1783948587642019 0.9837716480743219 0.019199448211681243
vn 0.15959345863517596 0.9870595665511179 0.015599360268354586
vn 0.16700692201278583 0.9846408801915628 0.05090211248464795
vn 0.17379933367580266 0.9842961897426759 0.030899878185799572
vn 0.14439629177935254 0.9887746085756011 0.03839901504646995
vn 0.19570688967084632 0.9806345137116053 -0.00740026033100164
vn 0.17889377487794286 0.9835658080577937 -0.0243991501806787
vn 0.17889377487794286 0.9835658080577937 -0.0243991501806787
vn 0.21109189545321932 0.9774624914710323 0.002699896518237229
vn 0.22309500971536342 0.9746781966251509 0.015199659984541685
vn 0.21109189545321932 0.9774624914710323 0.002699896518237229
vn 0.1551969913579905 0.9878808653269098 -0.0022999553003512506
vn 0.15119873258060448 0.9884917317041417 -0.004799960267082176
vn 0.1551969913579905 0.9878808653269098 -0.0022999553003512506
vn 0.1551969913579905 0.9878808653269098 -0.0022999553003512506
vn 0.2256992568591081 0.9741967745053143 -0.0006999976344158219
vn 0.1014979481417841 0.9938799140103158 -0.043599117535278634
vn 0.1014979481417841 0.9938799140103158 -0.043599117535278634
vn 0.1678005463895543 0.9858033101981732 0.005900019804312407
vn 0.22049554886258074 0.9722803700490855 0.0777984251061839
vn 0.1662015418235116 0.9847091738284286 -0.05220048346156458
vn 0.2172052569941399 0.9761236940676282 -0.002100050922481837
vn 0.19459166936440436 0.9805580283650536 -0.025298917423737872
vn 0.1963990172894431 0.9803951338758317 -0.015899920764929125
vn 0.12579767151671165 0.9906816878311782 0.052199034827681484
vn 0.0784963684351473 0.994753918681248 0.06559696190217063
vn 0.12579767151671165 0.9906816878311782 0.052199034827681484
vn 0.18230296589323544 0.9832160428608618 0.007200117190552129
vn 0.1345938269070657 0.9903545783967634 -0.032898492474269125
vn 0.22720459399099902 0.9738196857274404 0.00730014788168649
vn 0.226596737937327 0.9739859488248492 0.0022999669390342302
vn 0.15760329803229733 0.9862205659932061 0.0503010503009912
vn 0.15399317397022078 0.9868562787871227 0.048997830452073156
vn 0.1617066752220323 0.9855406534412554 0.05060209089770073
vn 0.18660290979184135 0.9813152782997706 -0.04690073168578401
vn 0.18199106822243086 0.9830518241396204 0.022098917236436155
vn 0.12230618839571235 0.9923502041656577 0.01680085035020868
vn 0.1224998019569522 0.9923983872155039 0.011799981888734724
vn 0.1348999421106174 0.9902995085149391 -0.03329998579011788
vn 0.10939589914726922 0.993962767181331 -0.008399684934087487
vn 0.10649758607304462 0.9942774800612966 0.008399809734310017
vn 0.1905942721504144 0.9815704890779938 0.013899582534802045
vn 0.19549614349085256 0.9803806622599618 0.02519950291022873
vn 0.16300396721064017 0.9866239488948997 0.0017000413603896769
vn 0.20839928088643378 0.9771966337253144 -0.04069986193995452
vn 0.20839928088643378 0.9771966337253144 -0.04069986193995452
vn 0.21430844564216656 0.9762383925218322 -0.03210126310330446
vn 0.21430844564216656 0.9762383925218322 -0.03210126310330446
vn 0.33949267430938185 0.9378797292218539 -0.07159844694548764
vn 0.33949267430938185 0.9378797292218539 -0.07159844694548764
vn 0.200802808203159 0.9787136567973901 -0.042400592165744
vn 0.22170063382187016 0.9718028100469185 -0.080300232551929
vn 0.21380137984017492 0.9766063501443516 -0.02300014861180728
vn 0.21820468293206535 0.9753209612950932 0.03370072410100801
vn 0.21939037929481983 0.9751572097020715 0.03059865746965226
vn 0.2196009709287512 0.9753042851915753 0.02360010284088258
vn 0.19570688967084632 0.9806345137116053 -0.00740026033100164
vn 0.129094748801778 0.9880598715579403 -0.08409658761633795
vn 0.129094748801778 0.9880598715579403 -0.08409658761633795
vn 0.17929906803878978 0.9822949581260783 0.05429971860431159
vn 0.18100122911171868 0.9830067051156958 0.030600208457309052
vn 0.1958001130362218 0.9779005167451575 0.07330003468318985
vn 1 0 0
vn 1 0 0
vn 1 0 0
vn 1 0 0
vn 1 0 0
vn 1 0 0
vn 1 0 0
vn 1 0 0
vn 1 0 0
vn 1 0 0
vn 1 0 0
vn 1 0 0
vn 1 0 0
vn 1 0 0
vn 1 0 0
vn 1 0 0
vn 1 0 0
vn 1 0 0
vn 1 0 0
vn 1 0 0
vn 1 0 0
vn 1 0 0
vn 1 0 0
vn 1 0 0
vn 1 0 0
vn 1 0 0
vn 1 0 0
vn 1 0 0
vn 1 0 0
vn 1 0 0
vn 1 0 0
vn 1 0 0
vn 1 0 0
vn 1 0 0
vn 1 0 0
vn 1 0 0
vn 1 0 0
vn 1 0 0
vn 1 0 0
vn 1 0 0
vn 1 0 0
vn 1 0 0
vn 1 0 0
f 1//1 2//2 3//3
f 4//4 5//5 6//6
f 7//7 8//8 9//9
f 10//10 11//11 12//12
f 13//13 14//14 15//15
f 8//8 5//5 9//9
f 16//16 1//1 17//17
f 18//18 19//19 16//16
f 6//6 19//19 18//18
f 14//14 20//20 15//15
f 17//17 21//21 22//22
f 5//5 23//23 6//6
f 24//24 14//14 7//7
f 2//2 25//25 3//3
f 15//15 20//20 26//26
f 10//10 27//27 11//11
f 28//28 27//27 10//10
f 17//17 1//1 21//21
f 29//29 30//30 31//31
f 7//7 14//14 8//8
f 26//26 20//20 28//28
f 5//5 32//32 23//23
f 21//21 1//1 33//33
f 34//34 35//35 14//14
f 29//29 9//9 30//30
f 36//36 9//9 37//37
f 38//38 9//9 36//36
f 11//11 39//39 2//2
f 8//8 14//14 40//40
f 35//35 20//20 14//14
f 38//38 7//7 9//9
f 41//41 30//30 42//42
f 19//19 1//1 16//16
f 1//1 43//43 33//33
f 42//42 44//44 45//45
f 9//9 4//4 30//30
f 40//40 46//46 5//5
f 14//14 47//47 40//40
f 40//40 47//47 46//46
f 30//30 44//44 42//42
f 27//27 39//39 11//11
f 5//5 46//46 48//48
f 20//20 27//27 28//28
f 49//49 27//27 50//50
f 23//23 32//32 1//1
f 51//51 27//27 52//52
f 20//20 53//53 54//54
f 27//27 55//55 39//39
f 39//39 55//55 56//56
f 20//20 57//57 27//27
f 54//54 57//57 20//20
f 49//49 55//55 27//27
f 51//51 50//50 27//27
f 57//57 52//52 27//27
f 30//30 16//16 44//44
f 32//32 12//12 1//1
f 14//14 13//13 47//47
f 58//58 59//59 14//14
f 48//48 10//10 32//32
f 60//60 14//14 59//59
f 46//46 61//61 48//48
f 43//43 62//62 63//63
f 1//1 3//3 43//43
f 44//44 16//16 17//17
f 10//10 12//12 32//32
f 48//48 61//61 10//10
f 11//11 2//2 1//1
f 64//64 24//24 7//7
f 65//65 24//24 64//64
f 66//66 24//24 65//65
f 4//4 16//16 30//30
f 43//43 3//3 62//62
f 9//9 5//5 4//4
f 13//13 15//15 61//61
f 4//4 6//6 18//18
f 10//10 61//61 15//15
f 1//1 1//1 1//1
f 1//1 1//1 1//1
f 1//1 1//1 1//1
f 1//1 1//1 1//1
f 1//1 1//1 1//1
f 1//1 1//1 1//1
f 1//1 1//1 1//1
f 1//1 1//1 1//1
f 1//1 1//1 1//1
f 1//1 1//1 1//1
f 1//1 1//1 1//1
f 1//1 1//1 1//1
f 1//1 1//1 1//1
f 1//1 1//1 1//1
f 1//1 1//1 1//1
f 1//1 1//1 1//1
f 1//1 1//1 1//1
f 1//1 1//1 1//1
f 1//1 1//1 1//1
f 1//1 1//1 1//1
f 1//1 1//1 1//1
f 1//1 1//1 1//1
f 1//1 1//1 1//1
f 1//1 1//1 1//1
f 1//1 1//1 1//1
f 1//1 1//1 1//1
f 1//1 1//1 1//1
f 1//1 1//1 1//1
f 1//1 1//1 1//1
f 1//1 1//1 1//1
f 1//1 1//1 1//1
f 1//1 1//1 1//1
f 1//1 1//1 1//1
f 1//1 1//1 1//1
f 1//1 1//1 1//1
f 1//1 1//1 1//1
f 1//1 1//1 1//1
f 1//1 1//1 1//1
f 1//1 1//1 1//1
f 1//1 1//1 1//1
f 1//1 1//1 1//1
f 1//1 1//1 1//1
f 1//1 1//1 1//1
f 1//1 1//1 1//1
f 1//1 1//1 1//1
f 1//1 1//1 1//1
f 1//1 1//1 1//1
f 1//1 1//1 1//1
f 1//1 1//1 1//1
f 1//1 1//1 1//1
f 1//1 1//1 1//1
f 1//1 1//1 1//1
f 1//1 1//1 1//1
f 1//1 1//1 1//1
f 1//1 1//1 1//1
f 1//1 1//1 1//1
f 1//1 1//1 1//1
f 1//1 1//1 1//1
