mtllib link7_4.mtl
o mesh_0
usemtl material508
v -0.034949999302625656 -0.039896998554468155 0.08375699818134308
v -0.03563300147652626 -0.04030999913811684 0.08398400247097015
v -0.035691000521183014 -0.039159998297691345 0.08257199823856354
v -0.03670100122690201 -0.03924399986863136 0.0824040025472641
v -0.038026001304388046 -0.03747500106692314 0.0898749977350235
v -0.03630499914288521 -0.039639998227357864 0.0888340026140213
v -0.036504000425338745 -0.038339998573064804 0.08963699638843536
v -0.036977000534534454 -0.037870001047849655 0.08176500350236893
v -0.035670001059770584 -0.03918499872088432 0.08899100124835968
v -0.034974001348018646 -0.03987300023436546 0.08789599686861038
v -0.035273000597953796 -0.04067299887537956 0.08623400330543518
v -0.034619998186826706 -0.04021599888801575 0.0865980014204979
v -0.03458400070667267 -0.04025600105524063 0.0853080004453659
v -0.03854500129818916 -0.03739900141954422 0.0820930004119873
v -0.037390001118183136 -0.03845499828457832 0.0833590030670166
v -0.0364920012652874 -0.03818000108003616 0.08341900259256363
v -0.036913998425006866 -0.037755999714136124 0.08355099707841873
v -0.036924999207258224 -0.03900500014424324 0.08338399976491928
v -0.0374470017850399 -0.03817399963736534 0.08383099734783173
v -0.03694000095129013 -0.03773000091314316 0.0840110033750534
v -0.03703000023961067 -0.03890300169587135 0.08438900113105774
v -0.036664001643657684 -0.038006000220775604 0.08426599949598312
v -0.03606899827718735 -0.03986699879169464 0.08492500334978104
v -0.03562900051474571 -0.039041999727487564 0.08495300263166428
v -0.03609300032258034 -0.03857799991965294 0.08503799885511398
v -0.036701999604701996 -0.03922399878501892 0.08476399630308151
v -0.03685100004076958 -0.039090000092983246 0.08566199988126755
v -0.03603700175881386 -0.03863300010561943 0.0856349989771843
v -0.03618700057268143 -0.03974299877882004 0.08587700128555298
v -0.035707999020814896 -0.03896300122141838 0.08572400361299515
v -0.03713100031018257 -0.038809001445770264 0.0868000015616417
v -0.03649500012397766 -0.039434999227523804 0.08659499883651733
v -0.0359870009124279 -0.038683999329805374 0.08674599975347519
v -0.03643200173974037 -0.03824000060558319 0.08703300356864929
v -0.0368800014257431 -0.03906099870800972 0.08780500292778015
v -0.03628699854016304 -0.038384001702070236 0.08754000067710876
v -0.036357998847961426 -0.03958199918270111 0.08751899749040604
v -0.038054998964071274 -0.03781700134277344 0.08531100302934647
v -0.0376100018620491 -0.038332000374794006 0.08539599925279617
v -0.03745900094509125 -0.03721199929714203 0.08537700027227402
v -0.038437001407146454 -0.03750099986791611 0.08572100102901459
v -0.037627000361680984 -0.03704399988055229 0.0860000029206276
v -0.0380840003490448 -0.0377810001373291 0.08626899868249893
v -0.03718499839305878 -0.0374860018491745 0.08620300143957138
v -0.03901299834251404 -0.0369269996881485 0.08343800157308578
v -0.03782099857926369 -0.03685000166296959 0.08345299959182739
v -0.03826500102877617 -0.03640599921345711 0.08355099707841873
v -0.0390079990029335 -0.036928001791238785 0.08424799889326096
v -0.038290999829769135 -0.03638000041246414 0.0840110033750534
v -0.03834399953484535 -0.037588998675346375 0.08433400094509125
v -0.039576999843120575 -0.03636400029063225 0.08467300236225128
v -0.03866200149059296 -0.03600800037384033 0.08495300263166428
v -0.03901999816298485 -0.03565099835395813 0.08494000136852264
v -0.03916800022125244 -0.03550200164318085 0.0853469967842102
v -0.03994999825954437 -0.03598799929022789 0.08524800091981888
v -0.03886599838733673 -0.03580699861049652 0.08578599989414215
v -0.03967000171542168 -0.03627200052142143 0.08590500056743622
v -0.0395830012857914 -0.03635700047016144 0.08752100169658661
v -0.03942999988794327 -0.036490000784397125 0.08662699908018112
v -0.038697998970746994 -0.03597300127148628 0.08675900101661682
v -0.03883500024676323 -0.035836998373270035 0.08739999681711197
v -0.039211999624967575 -0.036649998277425766 0.08767600357532501
v -0.03847799822688103 -0.03619299829006195 0.0875919982790947
v -0.03784999996423721 -0.03779599815607071 0.08755999803543091
v -0.03719799965620041 -0.03747199848294258 0.08759500086307526
v -0.037634000182151794 -0.03703799843788147 0.08781900256872177
v -0.038364000618457794 -0.037574999034404755 0.08835499733686447
v -0.03750300034880638 -0.037167999893426895 0.08837000280618668
v -0.03717700019478798 -0.03749300166964531 0.08838900178670883
v -0.03770599886775017 -0.03822299838066101 0.0885699987411499
v -0.03759400174021721 -0.03825199976563454 0.08778800070285797
v -0.03880999982357025 -0.03713100031018257 0.08754199743270874
v -0.038802001625299454 -0.037137001752853394 0.08678500354290009
v -0.038325998932123184 -0.036343999207019806 0.08686699718236923
v -0.039152998477220535 -0.03678299859166145 0.08576799929141998
v -0.038548000156879425 -0.03612300008535385 0.08540000021457672
v -0.03910199925303459 -0.03683599829673767 0.08492500334978104
v -0.038252998143434525 -0.03768499940633774 0.08344800025224686
v -0.03773000091314316 -0.03694000095129013 0.0840110033750534
v -0.03838900104165077 -0.037553999572992325 0.08229999989271164
v -0.03759700059890747 -0.038061998784542084 0.08610600233078003
v -0.03703700006008148 -0.037634000182151794 0.08561699837446213
v -0.03581399843096733 -0.03885599970817566 0.08720900118350983
v -0.03638000041246414 -0.038290999829769135 0.0840110033750534
v -0.037772998213768005 -0.037943001836538315 0.08286599814891815
v -0.038247000426054 -0.03741300106048584 0.08229999989271164
v -0.03963899984955788 -0.036306001245975494 0.08883800357580185
v -0.040084999054670334 -0.03585899993777275 0.08338599652051926
v -0.04067299887537956 -0.035273000597953796 0.08623400330543518
v -0.040206000208854675 -0.034641001373529434 0.08483699709177017
v -0.03954999893903732 -0.03529699891805649 0.08303900063037872
v -0.04024500027298927 -0.03459399938583374 0.08647199720144272
v -0.03987099975347519 -0.034974999725818634 0.08789700269699097
v -0.03920400142669678 -0.035645999014377594 0.08896400034427643
v -0.03837699815630913 -0.03646799921989441 0.08198300004005432
v -0.03822200000286102 -0.03662500157952309 0.0897039994597435
v -0.03887299820780754 -0.03593900054693222 0.08309900015592575
v -0.03915800154209137 -0.035652998834848404 0.08347299695014954
v -0.039386000484228134 -0.03542599827051163 0.08386199921369553
v -0.03846300020813942 -0.03635000064969063 0.08274099975824356
v -0.03812599927186966 -0.0366859994828701 0.08255600184202194
v -0.03980499878525734 -0.03501100093126297 0.08547999709844589
v -0.039709001779556274 -0.03510399907827377 0.08480600267648697
v -0.03730500116944313 -0.03751000016927719 0.08240000158548355
v -0.03686799854040146 -0.037943001836538315 0.08248099684715271
v -0.03640799969434738 -0.03840399906039238 0.08270099759101868
v -0.03948900103569031 -0.035321999341249466 0.087506003677845
v -0.035982001572847366 -0.038830000907182693 0.08305399864912033
v -0.039197999984025955 -0.035613998770713806 0.08807399868965149
v -0.035613998770713806 -0.039197999984025955 0.08352600038051605
v -0.038830000907182693 -0.035982001572847366 0.08854600042104721
v -0.035321999341249466 -0.03948900103569031 0.08409400284290314
v -0.03840399906039238 -0.03640799969434738 0.08889800310134888
v -0.035055000334978104 -0.03975899890065193 0.08507200330495834
v -0.037943001836538315 -0.03686799854040146 0.08911799639463425
v -0.03751000016927719 -0.03730500116944313 0.08919999748468399
v -0.035009000450372696 -0.039802998304367065 0.08612100034952164
v -0.037046000361442566 -0.03776400163769722 0.08916699886322021
v -0.03510100021958351 -0.039705999195575714 0.08679399639368057
v -0.0366859994828701 -0.03812599927186966 0.0890439972281456
v -0.035241998732089996 -0.03956900164484978 0.08728300034999847
v -0.036350999027490616 -0.03846300020813942 0.08885899931192398
v -0.03542599827051163 -0.039386000484228134 0.08773799985647202
v -0.03593900054693222 -0.03887199983000755 0.08850099891424179
v 0 0 0
v 0 0 0
v 0 0 0
v 0 0 0
v 0 0 0
v 0 0 0
v 0 0 0
v 0 0 0
v 0 0 0
v 0 0 0
v 0 0 0
v 0 0 0
v 0 0 0
v 0 0 0
v 0 0 0
v 0 0 0
v 0 0 0
v 0 0 0
v 0 0 0
v 0 0 0
v 0 0 0
v 0 0 0
v 0 0 0
v 0 0 0
v 0 0 0
v 0 0 0
v 0 0 0
v 0 0 0
v 0 0 0
v 0 0 0
v 0 0 0
v 0 0 0
v 0 0 0
v 0 0 0
v 0 0 0
v 0 0 0
v 0 0 0
v 0 0 0
v 0 0 0
v 0 0 0
v 0 0 0
v 0 0 0
v 0 0 0
v 0 0 0
v 0 0 0
v 0 0 0
v 0 0 0
v 0 0 0
v 0 0 0
v 0 0 0
v 0 0 0
v 0 0 0
v 0 0 0
v 0 0 0
v 0 0 0
v 0 0 0
v 0 0 0
v 0 0 0
v 0 0 0
v 0 0 0
v 0 0 0
v 0 0 0
v 0 0 0
v 0 0 0
v 0 0 0
v 0 0 0
v 0 0 0
v 0 0 0
v 0 0 0
v 0 0 0
v 0 0 0
v 0 0 0
v 0 0 0
v 0 0 0
v 0 0 0
v 0 0 0
vn 0.5909107380743771 -0.4656084817908684 -0.6588119923869004
vn -0.20058835046836646 -0.8695494746764997 -0.4512737802556262
vn 0.5909107380743771 -0.4656084817908684 -0.6588119923869004
vn -0.5599957179020281 -0.6469950757443218 -0.517496055921194
vn 0.05899843576489828 -0.16709557183905127 0.9841738944155528
vn -0.29488923713727383 -0.9224663837726292 0.24919090800036212
vn 0.05899843576489828 -0.16709557183905127 0.9841738944155528
vn 0.35269624217270135 -0.2179976715485399 -0.9099903164081857
vn 0.3970805741399717 -0.2770864393168649 0.8749572119751751
vn 0.6265108112093304 -0.41520715573539685 0.6596114168690145
vn -0.29488923713727383 -0.9224663837726292 0.24919090800036212
vn 0.7373894509138705 -0.5758917971547581 0.3529949513106432
vn 0.7297816764792328 -0.6823828715611288 0.042098946247481554
vn -0.5599957179020281 -0.6469950757443218 -0.517496055921194
vn -0.3684083870982429 -0.8179185505016335 0.4419100644486135
vn 0.021100021590865634 -0.279200281599192 0.9600010374180836
vn 0.021100021590865634 -0.279200281599192 0.9600010374180836
vn -0.23329121884813034 -0.1531942306250633 0.9602638881638468
vn -0.3684083870982429 -0.8179185505016335 0.4419100644486135
vn 0.6403049714783319 -0.7640059456894774 0.0794006199677312
vn 0.10409502418065225 -0.22208938923040905 -0.9694537271742747
vn 0.3769144920882631 -0.39641525384154624 -0.8371322548890282
vn -0.9869370583813247 -0.11000413585052164 0.11770443020293561
vn 0.08760175872645685 -0.0939018877362619 0.9917199036762337
vn 0.08760175872645685 -0.0939018877362619 0.9917199036762337
vn -0.5143778285842207 -0.6020740225802431 0.61067366145514
vn 0.04699967007832138 -0.2689981134686135 -0.9619932671089002
vn 0.6296853557263586 -0.7660821839456561 -0.12889701402601686
vn 0.04699967007832138 -0.2689981134686135 -0.9619932671089002
vn 0.06719719472497966 -0.19719178546009172 -0.978059270580344
vn -0.1952114219781875 -0.47932805765058606 0.8556501118320329
vn -0.275888361533357 -0.5073785331967892 0.8163655039389615
vn 0.16050440458067758 -0.14020383694354543 0.9770267244126488
vn 0.1820010582209174 -0.39810229208278114 0.8991052106649712
vn -0.2788953553426117 -0.8686855654404069 -0.4093931718578105
vn 0.5184923249745369 -0.7719886063724349 -0.36769457512131576
vn -0.537019122887199 -0.0772027506970894 -0.8400298785985332
vn -0.1757035396669191 -0.8526172004166304 0.4921099223773313
vn -0.997819712042802 0.0627012395751594 -0.02060040811630723
vn -0.25811225326177223 0.149707109607904 0.9544453080449281
vn -0.1757035396669191 -0.8526172004166304 0.4921099223773313
vn 0.5456215035538876 -0.7603299467735094 0.3524138857919585
vn 0.1826084758960826 -0.8232381595191681 -0.5375249549950242
vn 0.05340178200944365 -0.3714123887855015 -0.926931004516983
vn -0.06680294814971349 -0.4794211943233922 0.8750386760321163
vn -0.009699801866316787 -0.22599537558597618 0.974080080926362
vn -0.009699801866316787 -0.22599537558597618 0.974080080926362
vn -0.11680224457609986 -0.2424046529568348 -0.9631184869406575
vn 0.6420888117657196 -0.7624867336351817 0.07959861076449734
vn -0.11680224457609986 -0.2424046529568348 -0.9631184869406575
vn 0.07089972418480991 -0.8125968486593917 0.5784977015160417
vn -0.09700156721162613 -0.05930095894438986 0.9935160251484444
vn -0.09700156721162613 -0.05930095894438986 0.9935160251484444
vn 0.6935698224656669 -0.5578757391490122 0.4557801674424706
vn 0.07089972418480991 -0.8125968486593917 0.5784977015160417
vn 0.4883147212277924 -0.5224157606238599 -0.699021105606989
vn -0.2769915387842297 -0.8486740959385295 -0.4505862473765309
vn 0.5664810682296755 -0.7953734600079609 0.21559280705146458
vn -0.2842124635096928 -0.8943391832394109 0.3455151239937479
vn 0.6298123003586165 -0.4521088005213319 0.6316123010266269
vn 0.5574009322484118 -0.7795013055059115 0.2858004818805968
vn -0.4292054532139728 -0.781909893549527 -0.4521057368589294
vn 0.12530246426307906 -0.370807261734313 -0.9202180541016898
vn -0.11339710335266066 -0.5453861203049268 0.8304788237697369
vn 0.1250942490749276 -0.3523837902323721 0.9274573269050429
vn 0.1250942490749276 -0.3523837902323721 0.9274573269050429
vn 0.4002015858423541 -0.9158036043522743 0.033800132317019144
vn 0.5572343962101446 -0.7686474181731298 -0.31411936300727705
vn -0.03590054366690396 -0.09410142712908069 -0.9949151081256585
vn 0.010899642201345186 -0.3056899528357297 -0.95206872154019
vn -0.6892911391857324 0.7039909563077364 -0.17109780500331997
vn -0.5163116455575832 -0.20000450315019255 -0.8327187300531107
vn -0.9829041182062963 0.17110071763425044 -0.06800028557401465
vn -0.7310713547797486 0.641974808384717 0.23109093366012615
vn -0.43519253692646453 -0.2032965177559932 -0.8770849341265617
vn -0.4964132105145857 0.42431128830311365 -0.7573201800065503
vn -0.9936485448266987 0.11019429739407172 0.022798819829351877
vn -0.9920118051346528 0.10940130271406673 -0.06280074392833902
vn -0.44390136430812677 0.33250102720859415 -0.8321025451653259
vn 0.7068195332228632 -0.7068195332228632 0.02850078787029547
vn -0.1594999308437959 0.2729998869575077 -0.9486995487413348
vn -0.738809422062213 0.5848074676543233 -0.3349042604205512
vn -0.620724623756902 0.5951235941413456 -0.5104202671898318
vn -0.4039873140630629 0.3530889116647164 -0.8438734920208942
vn -0.7150859568730357 -0.617787874776057 -0.3270935891494327
vn -0.7326755881751315 -0.6805773156363529 -0.0009999667202359788
vn -0.7064002010575523 -0.7078001949251643 -0.004200001160609859
vn -0.7056008784403246 -0.7086008399045477 0.003500004401691575
vn -0.7015841080605779 -0.7125838473456899 0.001999954713935329
vn -0.43548631629838724 0.782975374964566 -0.4441860314282273
vn -0.19020163002181348 0.5454046863691849 -0.8163069692361914
vn -0.5591099205944653 0.7526134176772797 0.3478061819821135
vn -0.5591099205944653 0.7526134176772797 0.3478061819821135
vn -0.4218963711757206 0.6248946232990452 0.6568943307417889
vn 0.07750054243547054 0.22870158543348243 -0.9704067450004763
vn -0.1935905083824109 0.46037742845386853 0.8663575119051273
vn 0.6889974042213334 0.7242973022521595 -0.02599990243267479
vn 0.6889974042213334 0.7242973022521595 -0.02599990243267479
vn 0.6867553121789238 0.7265526785751506 -0.022098562154653653
vn 0.6939027964364232 0.7193028987905443 -0.03320013387370068
vn 0.695998372356572 0.7172983902425876 -0.03269992404265485
vn 0.6809851500354198 0.732284006568313 -0.004399904032578573
vn 0.6806180460551235 0.7325195056225146 -0.013200351004907195
vn 0.708714190979887 0.7047140636427222 -0.033200662762752194
vn 0.7068185347643556 0.7065185445813689 -0.03520092436561526
vn 0.7166809452295568 0.6963815105318999 -0.037698999113749875
vn 0.6811055757249475 0.7320059770256419 0.01620013318227729
vn 0.7214125996955499 0.6914120322340147 -0.03890067714755276
vn 0.6847309475932984 0.7284328943654192 0.023001039420032905
vn 0.7269033175845291 0.6860031468812922 -0.031800147068365654
vn 0.6865871407683581 0.7263863533606304 0.030999415848953337
vn 0.7287199059731456 0.6844187527799312 -0.023200635371752723
vn 0.6913045581273498 0.7215048008462187 0.03910025918338414
vn 0.7264293324918258 0.6872277158300566 -0.004300173308502582
vn 0.697109527285759 0.7161098192968138 0.03500048105540635
vn 0.7056143160894109 0.7073143597380722 0.04260086193956626
vn 0.7275035958762748 0.6861034018140362 0.0008000039358657892
vn 0.7044728632881144 0.7089726564906108 0.03279873837957326
vn 0.727794699604583 0.685795002335813 0.00029999782848715354
vn 0.7133937462582138 0.6998938306876907 0.03489969290668964
vn 0.7298777474899323 0.6832791952661602 0.02019938205617303
vn 0.7173076963953997 0.6960074398583481 0.03230034603147412
vn 0.7300752987933392 0.6830769172395847 0.019899327282141256
vn 0.7191136417006001 0.6941131889221391 0.03290062741711364
vn 1 0 0
vn 1 0 0
vn 1 0 0
vn 1 0 0
vn 1 0 0
vn 1 0 0
vn 1 0 0
vn 1 0 0
vn 1 0 0
vn 1 0 0
vn 1 0 0
vn 1 0 0
vn 1 0 0
vn 1 0 0
vn 1 0 0
vn 1 0 0
vn 1 0 0
vn 1 0 0
vn 1 0 0
vn 1 0 0
vn 1 0 0
vn 1 0 0
vn 1 0 0
vn 1 0 0
vn 1 0 0
vn 1 0 0
vn 1 0 0
vn 1 0 0
vn 1 0 0
vn 1 0 0
vn 1 0 0
vn 1 0 0
vn 1 0 0
vn 1 0 0
vn 1 0 0
vn 1 0 0
vn 1 0 0
vn 1 0 0
vn 1 0 0
vn 1 0 0
vn 1 0 0
vn 1 0 0
vn 1 0 0
vn 1 0 0
vn 1 0 0
vn 1 0 0
vn 1 0 0
vn 1 0 0
vn 1 0 0
vn 1 0 0
vn 1 0 0
vn 1 0 0
vn 1 0 0
vn 1 0 0
vn 1 0 0
vn 1 0 0
vn 1 0 0
vn 1 0 0
vn 1 0 0
vn 1 0 0
vn 1 0 0
vn 1 0 0
vn 1 0 0
vn 1 0 0
vn 1 0 0
vn 1 0 0
vn 1 0 0
vn 1 0 0
vn 1 0 0
vn 1 0 0
vn 1 0 0
vn 1 0 0
vn 1 0 0
vn 1 0 0
vn 1 0 0
vn 1 0 0
f 1//1 2//2 3//3
f 2//2 4//4 3//3
f 5//5 6//6 7//7
f 3//3 4//4 8//8
f 7//7 6//6 9//9
f 6//6 10//10 9//9
f 10//10 11//11 12//12
f 12//12 11//11 13//13
f 13//13 2//2 1//1
f 11//11 10//10 6//6
f 14//14 8//8 4//4
f 2//2 13//13 11//11
f 15//15 16//16 17//17
f 15//15 18//18 16//16
f 19//19 15//15 17//17
f 19//19 17//17 20//20
f 21//21 20//20 22//22
f 21//21 19//19 20//20
f 23//23 24//24 25//25
f 26//26 23//23 25//25
f 27//27 25//25 28//28
f 27//27 26//26 25//25
f 29//29 27//27 28//28
f 29//29 28//28 30//30
f 31//31 32//32 33//33
f 31//31 33//33 34//34
f 35//35 31//31 34//34
f 35//35 34//34 36//36
f 35//35 36//36 37//37
f 38//38 39//39 40//40
f 41//41 40//40 42//42
f 41//41 38//38 40//40
f 43//43 41//41 42//42
f 43//43 42//42 44//44
f 45//45 46//46 47//47
f 48//48 45//45 47//47
f 48//48 47//47 49//49
f 48//48 49//49 50//50
f 51//51 52//52 53//53
f 51//51 53//53 54//54
f 55//55 51//51 54//54
f 55//55 54//54 56//56
f 57//57 55//55 56//56
f 58//58 59//59 60//60
f 58//58 60//60 61//61
f 62//62 58//58 61//61
f 62//62 61//61 63//63
f 64//64 65//65 66//66
f 67//67 64//64 66//66
f 67//67 66//66 68//68
f 67//67 68//68 69//69
f 70//70 67//67 69//69
f 70//70 69//69 71//71
f 64//64 71//71 65//65
f 72//72 62//62 63//63
f 73//73 72//72 74//74
f 59//59 73//73 74//74
f 59//59 74//74 60//60
f 75//75 56//56 76//76
f 75//75 57//57 56//56
f 77//77 75//75 76//76
f 77//77 76//76 52//52
f 51//51 77//77 52//52
f 78//78 79//79 46//46
f 78//78 50//50 79//79
f 45//45 78//78 46//46
f 45//45 80//80 78//78
f 81//81 43//43 44//44
f 81//81 44//44 82//82
f 39//39 81//81 82//82
f 39//39 82//82 40//40
f 37//37 83//83 33//33
f 32//32 37//37 33//33
f 23//23 29//29 24//24
f 21//21 22//22 84//84
f 21//21 84//84 16//16
f 18//18 21//21 16//16
f 85//85 78//78 86//86
f 80//80 85//85 86//86
f 80//80 86//86 78//78
f 77//77 41//41 75//75
f 67//67 5//5 87//87
f 19//19 38//38 50//50
f 75//75 73//73 59//59
f 75//75 41//41 73//73
f 23//23 11//11 29//29
f 71//71 35//35 70//70
f 70//70 5//5 67//67
f 14//14 45//45 88//88
f 14//14 80//80 45//45
f 19//19 39//39 38//38
f 21//21 39//39 19//19
f 51//51 55//55 88//88
f 45//45 48//48 88//88
f 88//88 55//55 89//89
f 48//48 51//51 88//88
f 41//41 43//43 73//73
f 29//29 11//11 32//32
f 70//70 6//6 5//5
f 18//18 4//4 21//21
f 35//35 6//6 70//70
f 4//4 80//80 14//14
f 32//32 11//11 37//37
f 11//11 6//6 37//37
f 62//62 87//87 58//58
f 37//37 6//6 35//35
f 48//48 77//77 51//51
f 85//85 15//15 78//78
f 4//4 85//85 80//80
f 4//4 2//2 21//21
f 55//55 57//57 89//89
f 21//21 26//26 39//39
f 50//50 77//77 48//48
f 26//26 27//27 39//39
f 2//2 26//26 21//21
f 39//39 27//27 81//81
f 73//73 64//64 72//72
f 43//43 64//64 73//73
f 2//2 23//23 26//26
f 43//43 71//71 64//64
f 81//81 71//71 43//43
f 64//64 67//67 72//72
f 72//72 67//67 62//62
f 67//67 87//87 62//62
f 78//78 15//15 50//50
f 4//4 15//15 85//85
f 15//15 19//19 50//50
f 4//4 18//18 15//15
f 27//27 31//31 81//81
f 57//57 59//59 89//89
f 27//27 32//32 31//31
f 75//75 59//59 57//57
f 81//81 31//31 71//71
f 29//29 32//32 27//27
f 59//59 58//58 89//89
f 89//89 58//58 87//87
f 31//31 35//35 71//71
f 50//50 41//41 77//77
f 38//38 41//41 50//50
f 2//2 11//11 23//23
f 90//90 91//91 88//88
f 88//88 91//91 14//14
f 91//91 8//8 14//14
f 89//89 90//90 88//88
f 92//92 89//89 93//93
f 89//89 87//87 93//93
f 93//93 87//87 94//94
f 8//8 91//91 95//95
f 94//94 87//87 96//96
f 87//87 5//5 96//96
f 96//96 5//5 7//7
f 90//90 89//89 92//92
f 97//97 91//91 98//98
f 99//99 98//98 91//91
f 97//97 95//95 91//91
f 100//100 95//95 97//97
f 90//90 99//99 91//91
f 101//101 95//95 100//100
f 102//102 103//103 90//90
f 104//104 8//8 95//95
f 92//92 102//102 90//90
f 105//105 8//8 104//104
f 106//106 8//8 105//105
f 107//107 92//92 93//93
f 106//106 3//3 8//8
f 108//108 3//3 106//106
f 109//109 107//107 93//93
f 110//110 3//3 108//108
f 94//94 109//109 93//93
f 1//1 3//3 110//110
f 111//111 109//109 94//94
f 1//1 110//110 112//112
f 113//113 111//111 94//94
f 96//96 113//113 94//94
f 13//13 1//1 114//114
f 96//96 115//115 113//113
f 96//96 116//116 115//115
f 7//7 116//116 96//96
f 12//12 13//13 117//117
f 7//7 118//118 116//116
f 12//12 117//117 119//119
f 7//7 120//120 118//118
f 10//10 12//12 119//119
f 10//10 119//119 121//121
f 7//7 122//122 120//120
f 10//10 121//121 123//123
f 7//7 124//124 122//122
f 9//9 124//124 7//7
f 10//10 123//123 9//9
f 1//1 1//1 1//1
f 1//1 1//1 1//1
f 1//1 1//1 1//1
f 1//1 1//1 1//1
f 1//1 1//1 1//1
f 1//1 1//1 1//1
f 1//1 1//1 1//1
f 1//1 1//1 1//1
f 1//1 1//1 1//1
f 1//1 1//1 1//1
f 1//1 1//1 1//1
f 1//1 1//1 1//1
f 1//1 1//1 1//1
f 1//1 1//1 1//1
f 1//1 1//1 1//1
f 1//1 1//1 1//1
f 1//1 1//1 1//1
f 1//1 1//1 1//1
f 1//1 1//1 1//1
f 1//1 1//1 1//1
f 1//1 1//1 1//1
f 1//1 1//1 1//1
f 1//1 1//1 1//1
f 1//1 1//1 1//1
f 1//1 1//1 1//1
f 1//1 1//1 1//1
f 1//1 1//1 1//1
f 1//1 1//1 1//1
f 1//1 1//1 1//1
f 1//1 1//1 1//1
f 1//1 1//1 1//1
f 1//1 1//1 1//1
f 1//1 1//1 1//1
f 1//1 1//1 1//1
f 1//1 1//1 1//1
f 1//1 1//1 1//1
f 1//1 1//1 1//1
f 1//1 1//1 1//1
f 1//1 1//1 1//1
f 1//1 1//1 1//1
f 1//1 1//1 1//1
f 1//1 1//1 1//1
f 1//1 1//1 1//1
f 1//1 1//1 1//1
f 1//1 1//1 1//1
f 1//1 1//1 1//1
f 1//1 1//1 1//1
f 1//1 1//1 1//1
f 1//1 1//1 1//1
f 1//1 1//1 1//1
f 1//1 1//1 1//1
f 1//1 1//1 1//1
f 1//1 1//1 1//1
f 1//1 1//1 1//1
f 1//1 1//1 1//1
f 1//1 1//1 1//1
f 1//1 1//1 1//1
f 1//1 1//1 1//1
f 1//1 1//1 1//1
f 1//1 1//1 1//1
f 1//1 1//1 1//1
f 1//1 1//1 1//1
f 1//1 1//1 1//1
f 1//1 1//1 1//1
f 1//1 1//1 1//1
f 1//1 1//1 1//1
f 1//1 1//1 1//1
f 1//1 1//1 1//1
f 1//1 1//1 1//1
f 1//1 1//1 1//1
f 1//1 1//1 1//1
f 1//1 1//1 1//1
f 1//1 1//1 1//1
f 1//1 1//1 1//1
f 1//1 1//1 1//1
f 1//1 1//1 1//1
f 1//1 1//1 1//1
f 1//1 1//1 1//1
f 1//1 1//1 1//1
f 1//1 1//1 1//1
f 1//1 1//1 1//1
f 1//1 1//1 1//1
f 1//1 1//1 1//1
f 1//1 1//1 1//1
f 1//1 1//1 1//1
f 1//1 1//1 1//1
f 1//1 1//1 1//1
f 1//1 1//1 1//1
f 1//1 1//1 1//1
f 1//1 1//1 1//1
f 1//1 1//1 1//1
f 1//1 1//1 1//1
f 1//1 1//1 1//1
f 1//1 1//1 1//1
f 1//1 1//1 1//1
f 1//1 1//1 1//1
f 1//1 1//1 1//1
f 1//1 1//1 1//1
f 1//1 1//1 1//1
f 1//1 1//1 1//1
f 1//1 1//1 1//1
f 1//1 1//1 1//1
f 1//1 1//1 1//1
f 1//1 1//1 1//1
f 1//1 1//1 1//1
f 1//1 1//1 1//1
f 1//1 1//1 1//1
f 1//1 1//1 1//1
f 1//1 1//1 1//1
f 1//1 1//1 1//1
f 1//1 1//1 1//1
f 1//1 1//1 1//1
f 1//1 1//1 1//1
f 1//1 1//1 1//1
f 1//1 1//1 1//1
f 1//1 1//1 1//1
f 1//1 1//1 1//1
f 1//1 1//1 1//1
f 1//1 1//1 1//1
f 1//1 1//1 1//1
f 1//1 1//1 1//1
f 1//1 1//1 1//1
f 1//1 1//1 1//1
f 1//1 1//1 1//1
f 1//1 1//1 1//1
f 1//1 1//1 1//1
f 1//1 1//1 1//1
f 1//1 1//1 1//1
f 1//1 1//1 1//1
f 1//1 1//1 1//1
f 1//1 1//1 1//1
f 1//1 1//1 1//1
f 1//1 1//1 1//1
f 1//1 1//1 1//1
f 1//1 1//1 1//1
f 1//1 1//1 1//1
f 1//1 1//1 1//1
f 1//1 1//1 1//1
f 1//1 1//1 1//1
f 1//1 1//1 1//1
f 1//1 1//1 1//1
f 1//1 1//1 1//1
f 1//1 1//1 1//1
f 1//1 1//1 1//1
f 1//1 1//1 1//1
f 1//1 1//1 1//1
f 1//1 1//1 1//1
f 1//1 1//1 1//1
f 1//1 1//1 1//1
f 1//1 1//1 1//1
