mtllib link6_3.mtl
o mesh_0
usemtl material358
v 0.08910699933767319 0.07707999646663666 -0.009464000351727009
v 0.08916900306940079 0.07740200310945511 -0.01194899994879961
v 0.08896200358867645 0.07741300016641617 -0.009197999723255634
v 0.08896899968385696 0.0778139978647232 -0.012075000442564487
v 0.08853600174188614 0.07814999669790268 -0.01194700039923191
v 0.08871699869632721 0.07769899815320969 -0.009312000125646591
v 0.08811499923467636 0.07823500037193298 -0.011881000362336636
v 0.08769199997186661 0.07782799750566483 -0.009126000106334686
v 0.08760099858045578 0.07776299864053726 -0.012600000016391277
v 0.08768700063228607 0.07810600101947784 -0.012267000041902065
v 0.08788999915122986 0.07774700224399567 -0.012776000425219536
v 0.08733700215816498 0.07777100056409836 -0.01232099998742342
v 0.08901599794626236 0.07747799903154373 -0.012353000231087208
v 0.0871879979968071 0.07775399833917618 -0.011970999650657177
v 0.0886709988117218 0.07758600264787674 -0.012678000144660473
v 0.08833400160074234 0.07767000049352646 -0.012807000428438187
v 0.08714299649000168 0.0775889977812767 -0.010685999877750874
v 0.08714400231838226 0.07741100341081619 -0.009270000271499157
v 0.08765500038862228 0.07724999636411667 -0.008580000139772892
v 0.08802200108766556 0.07717400044202805 -0.008484000340104103
v 0.08840099722146988 0.07710500061511993 -0.00853899959474802
v 0.08735600113868713 0.07732299715280533 -0.00885900016874075
v 0.08896999806165695 0.07705699652433395 -0.009003999643027782
v 0.08873499929904938 0.07706700265407562 -0.008727000094950199
v 0 0 0
v 0 0 0
v 0 0 0
v 0 0 0
v 0 0 0
v 0 0 0
v 0 0 0
v 0 0 0
v 0 0 0
v 0 0 0
vn 0.9340672217410851 0.35038771191660134 0.06889758055795181
vn 0.9340672217410851 0.35038771191660134 0.06889758055795181
vn 0.9340672217410851 0.35038771191660134 0.06889758055795181
vn 0.8892867560210337 0.45269325350385886 0.06509903069691157
vn 0.6272713491808287 0.7736645875079481 0.08929591554499886
vn 0.030298846256621124 0.3975848311885629 -0.9170650369108397
vn 0.2180077860466951 0.9643344790001271 0.15010535578243706
vn -0.5092108847196819 0.853518307458103 0.110502369734111
vn -0.344489179705843 0.696478173286347 -0.6294802293966894
vn -0.16289589140487967 0.9759753545043054 -0.14469635781043405
vn -0.344489179705843 0.696478173286347 -0.6294802293966894
vn -0.5410150188956782 0.6515180943483624 -0.5318147441224128
vn 0.8950700019224986 0.3515881839212957 -0.2742907956628942
vn -0.6510017259695496 0.7197018580376434 -0.2413006181546811
vn 0.6869919389289052 0.4303949829200786 -0.5854931549761522
vn 0.413409401609495 0.5693129755306258 -0.7106162132637731
vn -0.7017864144188932 0.7092862882230262 0.0663987189324888
vn -0.7557619953862759 0.6496673349933942 0.08219586469120926
vn -0.43369076179068894 0.6334865169644376 0.6407863575027775
vn 0.1504058989150174 0.4954194433941002 0.8555335415275346
vn 0.20360394151491842 0.3923076156646714 0.8970173742414859
vn -0.7561126960063193 0.43960738255675075 0.4848081477653383
vn 0.7205854812687813 0.3450930194407922 0.6013878716085616
vn 0.49710938762688417 0.2111039924925254 0.8416159225483677
vn 1 0 0
vn 1 0 0
vn 1 0 0
vn 1 0 0
vn 1 0 0
vn 1 0 0
vn 1 0 0
vn 1 0 0
vn 1 0 0
vn 1 0 0
f 1//1 2//2 3//3
f 4//4 3//3 2//2
f 5//5 6//6 4//4
f 4//4 6//6 3//3
f 7//7 6//6 5//5
f 8//8 6//6 7//7
f 9//9 10//10 11//11
f 11//11 10//10 5//5
f 12//12 10//10 9//9
f 13//13 4//4 2//2
f 14//14 10//10 12//12
f 15//15 4//4 13//13
f 15//15 16//16 4//4
f 10//10 7//7 5//5
f 16//16 5//5 4//4
f 11//11 5//5 16//16
f 17//17 10//10 14//14
f 8//8 10//10 18//18
f 18//18 10//10 17//17
f 8//8 7//7 10//10
f 18//18 19//19 8//8
f 8//8 19//19 6//6
f 20//20 21//21 6//6
f 22//22 19//19 18//18
f 20//20 6//6 19//19
f 23//23 3//3 24//24
f 24//24 3//3 21//21
f 1//1 3//3 23//23
f 3//3 6//6 21//21
f 1//1 1//1 1//1
f 1//1 1//1 1//1
f 1//1 1//1 1//1
f 1//1 1//1 1//1
f 1//1 1//1 1//1
f 1//1 1//1 1//1
f 1//1 1//1 1//1
f 1//1 1//1 1//1
f 1//1 1//1 1//1
f 1//1 1//1 1//1
f 1//1 1//1 1//1
f 1//1 1//1 1//1
f 1//1 1//1 1//1
f 1//1 1//1 1//1
f 1//1 1//1 1//1
f 1//1 1//1 1//1
f 1//1 1//1 1//1
f 1//1 1//1 1//1
f 1//1 1//1 1//1
f 1//1 1//1 1//1
