mtllib link6_6.mtl
o mesh_0
usemtl material388
v 0.07632800191640854 0.07967200130224228 -0.000986000057309866
v 0.07911500334739685 0.07881099730730057 -0.0009379999828524888
v 0.07872500270605087 0.07891999930143356 -0.0010010000551119447
v 0.07639499753713608 0.08001299947500229 -0.0007769999792799354
v 0.07908400148153305 0.0793439969420433 -0.0005920000257901847
v 0.07656499743461609 0.08026599884033203 -0.0002680000034160912
v 0.07907100021839142 0.07950100302696228 -0.00018000000272877514
v 0.07947699725627899 0.07870200276374817 -0.0006859999848529696
v 0.07922600209712982 0.07877799868583679 0.0008900000248104334
v 0.07912500202655792 0.07916700094938278 0.0007800000021234155
v 0.07878799736499786 0.07890100032091141 0.0010010000551119447
v 0.07923399657011032 0.07942599803209305 0.00023400000645779073
v 0.07972099632024765 0.07863099873065948 -0.00020500000391621143
v 0.07950299978256226 0.07870599627494812 0.0006840000278316438
v 0.07969199866056442 0.07864099740982056 0.0003150000120513141
v 0.07651299983263016 0.0799039974808693 0.0008479999960400164
v 0.07652299851179123 0.08028200268745422 0.00016900000628083944
v 0.07640200108289719 0.07964800298213959 0.0009950000094249845
v 0.07604999840259552 0.08025500178337097 0.00012099999730708078
v 0.07579900324344635 0.07984200119972229 -0.0006580000044777989
v 0.07558400183916092 0.07991799712181091 -0.00013600000238511711
v 0.07562900334596634 0.0799029991030693 0.00035099999513477087
v 0.07596900314092636 0.07978799939155579 0.0008140000281855464
v 0 0 0
v 0 0 0
v 0 0 0
v 0 0 0
v 0 0 0
v 0 0 0
v 0 0 0
v 0 0 0
v 0 0 0
v 0 0 0
v 0 0 0
vn 0.13829761489963668 0.4578920816862807 -0.8781848388819271
vn 0.6045308776714066 0.3101158176752031 -0.733737417315949
vn 0.13829761489963668 0.4578920816862807 -0.8781848388819271
vn 0.14529347385430047 0.49637770535559367 -0.8558615425880901
vn 0.28939262121431863 0.8969771293545414 -0.3341914723651578
vn 0.23009832719923926 0.8389938662042826 -0.49309639249512077
vn 0.28939262121431863 0.8969771293545414 -0.3341914723651578
vn 0.8921716967392084 0.11279642781848462 -0.43738613307793767
vn 0.31849119945744353 0.33389077511569754 0.8871754652608455
vn 0.546208690396562 0.7089113136193961 0.44620714467351946
vn 0.31849119945744353 0.33389077511569754 0.8871754652608455
vn 0.546208690396562 0.7089113136193961 0.44620714467351946
vn 0.9840989863790259 0.16989982395552905 0.051799950073858306
vn 0.6154096082199355 0.3582055840899814 0.7021109411178127
vn 0.865516550019615 0.3165060604026217 0.38820743858220325
vn 0.152000619181031 0.47710197605227284 0.8656035560322056
vn 0.3098143290893922 0.9359432313075402 0.16740773357431862
vn 0.1378064125503416 0.4476208589138779 0.8835411474997682
vn -0.0846991094764463 0.9469900162507152 0.30989670855846024
vn -0.31138537311722053 0.5399746468330606 -0.7819632537313761
vn -0.5254088197884885 0.837914074140163 -0.14780249133996654
vn -0.6132894321667129 0.7857864112281115 0.08009861622946933
vn -0.49376934909481524 0.6866573115167828 0.5335668340845656
vn 1 0 0
vn 1 0 0
vn 1 0 0
vn 1 0 0
vn 1 0 0
vn 1 0 0
vn 1 0 0
vn 1 0 0
vn 1 0 0
vn 1 0 0
vn 1 0 0
f 1//1 2//2 3//3
f 4//4 2//2 1//1
f 2//2 4//4 5//5
f 6//6 5//5 4//4
f 5//5 6//6 7//7
f 2//2 5//5 8//8
f 9//9 10//10 11//11
f 12//12 13//13 5//5
f 9//9 14//14 10//10
f 7//7 12//12 5//5
f 15//15 13//13 14//14
f 14//14 13//13 10//10
f 13//13 12//12 10//10
f 8//8 5//5 13//13
f 11//11 10//10 16//16
f 16//16 10//10 17//17
f 11//11 16//16 18//18
f 17//17 12//12 7//7
f 10//10 12//12 17//17
f 16//16 17//17 19//19
f 20//20 6//6 4//4
f 21//21 19//19 20//20
f 22//22 19//19 21//21
f 22//22 16//16 19//19
f 20//20 19//19 6//6
f 6//6 19//19 17//17
f 20//20 4//4 1//1
f 23//23 16//16 22//22
f 18//18 16//16 23//23
f 6//6 17//17 7//7
f 1//1 1//1 1//1
f 1//1 1//1 1//1
f 1//1 1//1 1//1
f 1//1 1//1 1//1
f 1//1 1//1 1//1
f 1//1 1//1 1//1
f 1//1 1//1 1//1
f 1//1 1//1 1//1
f 1//1 1//1 1//1
f 1//1 1//1 1//1
f 1//1 1//1 1//1
f 1//1 1//1 1//1
f 1//1 1//1 1//1
f 1//1 1//1 1//1
f 1//1 1//1 1//1
f 1//1 1//1 1//1
f 1//1 1//1 1//1
f 1//1 1//1 1//1
f 1//1 1//1 1//1
f 1//1 1//1 1//1
f 1//1 1//1 1//1
f 1//1 1//1 1//1
