mtllib link6_4.mtl
o mesh_0
usemtl material368
v 0.0969879999756813 0.07565099745988846 -0.0008929999894462526
v 0.09998399764299393 0.07590500265359879 -0.0007280000136233866
v 0.09744399785995483 0.07561100274324417 -0.0010010000551119447
v 0.09990999847650528 0.07614599913358688 -0.00019200000679120421
v 0.09995599836111069 0.07549499720335007 -0.0009919999865815043
v 0.09698300063610077 0.07619500160217285 -0.00014699999883305281
v 0.0972519963979721 0.07563400268554688 0.0010000000474974513
v 0.09727399796247482 0.07614800333976746 0.0005559999844990671
v 0.09677000343799591 0.07566600292921066 0.0007510000141337514
v 0.0967010036110878 0.07566600292921066 -0.000653000024612993
v 0.09646899998188019 0.07568199932575226 -0.0002010000025620684
v 0.09650199860334396 0.07568000257015228 0.0003000000142492354
v 0.0986350029706955 0.0755470022559166 0.0009980000322684646
v 0.10003700107336044 0.07549600303173065 0.000994000001810491
v 0.10010399669408798 0.07609499990940094 0.0003420000139158219
v 0.10072500258684158 0.07546699792146683 0.00041000000783242285
v 0.10061299800872803 0.07547099888324738 -0.0005890000029467046
v 0.10080400109291077 0.07546500116586685 -0.00015500000154133886
v 0.10044000297784805 0.07547499984502792 0.0007650000043213367
v 0.10030800104141235 0.07547900080680847 -0.0008590000215917826
v 0 0 0
v 0 0 0
v 0 0 0
v 0 0 0
v 0 0 0
v 0 0 0
v 0 0 0
v 0 0 0
v 0 0 0
v 0 0 0
v 0 0 0
v 0 0 0
v 0 0 0
v 0 0 0
v 0 0 0
v 0 0 0
v 0 0 0
vn -0.5184024615802567 0.5476025984864158 -0.6568030770013608
vn 0.009800264366537905 0.7734208509452476 -0.6338171204231351
vn 0.0029999397204870976 0.5529888863809792 -0.8331832282882308
vn 0.0734991942924082 0.9133899685486837 -0.40039559662039415
vn 0.043300445471984875 0.5385055461043091 -0.8415086738928053
vn -0.35430213082547035 0.8356050677627177 -0.41980253789346633
vn -0.3242859524485626 0.6263728703286949 0.7088692745215583
vn -0.3242859524485626 0.6263728703286949 0.7088692745215583
vn -0.3242859524485626 0.6263728703286949 0.7088692745215583
vn -0.5184024615802567 0.5476025984864158 -0.6568030770013608
vn -0.7686067369822103 0.6375056030480213 0.053200469433438174
vn -0.7686067369822103 0.6375056030480213 0.053200469433438174
vn 0.02089964195700075 0.4985914456351603 0.8665851229426398
vn 0.02089964195700075 0.4985914456351603 0.8665851229426398
vn 0.03779896620891706 0.9959728453383977 0.08129778288534854
vn 0.7249720181873377 0.3796853467784531 0.5746778317345331
vn 0.8462072537443731 0.38660329244915437 -0.36670311967295793
vn 0.8462072537443731 0.38660329244915437 -0.36670311967295793
vn 0.48339346552683343 0.3021959097740472 0.8215889419909409
vn 0.6186964482749245 0.3821977954994233 -0.6863960591432432
vn 1 0 0
vn 1 0 0
vn 1 0 0
vn 1 0 0
vn 1 0 0
vn 1 0 0
vn 1 0 0
vn 1 0 0
vn 1 0 0
vn 1 0 0
vn 1 0 0
vn 1 0 0
vn 1 0 0
vn 1 0 0
vn 1 0 0
vn 1 0 0
vn 1 0 0
f 1//1 2//2 3//3
f 1//1 4//4 2//2
f 3//3 2//2 5//5
f 4//4 1//1 6//6
f 7//7 8//8 9//9
f 10//10 11//11 1//1
f 11//11 6//6 1//1
f 12//12 9//9 11//11
f 6//6 9//9 8//8
f 9//9 6//6 11//11
f 13//13 14//14 7//7
f 6//6 15//15 4//4
f 14//14 15//15 8//8
f 7//7 14//14 8//8
f 6//6 8//8 15//15
f 16//16 15//15 14//14
f 17//17 4//4 18//18
f 18//18 4//4 15//15
f 19//19 16//16 14//14
f 16//16 18//18 15//15
f 5//5 2//2 20//20
f 20//20 2//2 17//17
f 17//17 2//2 4//4
f 1//1 1//1 1//1
f 1//1 1//1 1//1
f 1//1 1//1 1//1
f 1//1 1//1 1//1
f 1//1 1//1 1//1
f 1//1 1//1 1//1
f 1//1 1//1 1//1
f 1//1 1//1 1//1
f 1//1 1//1 1//1
f 1//1 1//1 1//1
f 1//1 1//1 1//1
f 1//1 1//1 1//1
f 1//1 1//1 1//1
f 1//1 1//1 1//1
f 1//1 1//1 1//1
f 1//1 1//1 1//1
f 1//1 1//1 1//1
f 1//1 1//1 1//1
f 1//1 1//1 1//1
f 1//1 1//1 1//1
f 1//1 1//1 1//1
f 1//1 1//1 1//1
f 1//1 1//1 1//1
f 1//1 1//1 1//1
f 1//1 1//1 1//1
f 1//1 1//1 1//1
f 1//1 1//1 1//1
f 1//1 1//1 1//1
f 1//1 1//1 1//1
f 1//1 1//1 1//1
f 1//1 1//1 1//1
f 1//1 1//1 1//1
f 1//1 1//1 1//1
f 1//1 1//1 1//1
