mtllib link0_3.mtl
o mesh_0
usemtl material128
v -0.02829200029373169 -0.07545799762010574 0.06080799922347069
v -0.02784699946641922 -0.07552099972963333 0.06210000067949295
v -0.02926800027489662 -0.07498499751091003 0.0620650015771389
v -0.02627900056540966 -0.07554599642753601 0.0668959990143776
v -0.027571000158786774 -0.07532700151205063 0.06625600159168243
v -0.02711299993097782 -0.07560800015926361 0.06537400186061859
v -0.02782200090587139 -0.0755229964852333 0.06283199787139893
v -0.02768000029027462 -0.07551699876785278 0.0647289976477623
v -0.021890999749302864 -0.0764319971203804 0.0643950030207634
v -0.02318499982357025 -0.07603000104427338 0.06629099696874619
v -0.02254899963736534 -0.07587499916553497 0.06272199749946594
v -0.02426999993622303 -0.076105996966362 0.06084199994802475
v -0.023969000205397606 -0.07593400031328201 0.05932899937033653
v -0.025141000747680664 -0.0754690021276474 0.060145001858472824
v -0.026575999334454536 -0.07561600208282471 0.05923499912023544
v -0.022758999839425087 -0.0763539969921112 0.061142999678850174
v -0.021956000477075577 -0.07638800144195557 0.06134599819779396
v -0.027639999985694885 -0.07506900280714035 0.06379599869251251
v -0.028248000890016556 -0.07526399940252304 0.06021200120449066
v -0.028517000377178192 -0.07539200037717819 0.06497500091791153
v -0.028636999428272247 -0.07512100040912628 0.06517399847507477
v -0.022610999643802643 -0.07611899822950363 0.06021900102496147
v -0.022912999615073204 -0.06843899935483932 0.066880002617836
v -0.020755000412464142 -0.06878799945116043 0.060896001756191254
v -0.023541999980807304 -0.06833700090646744 0.05890199914574623
v -0.02034600079059601 -0.06885399669408798 0.06440400332212448
v -0.02634499967098236 -0.06788600236177444 0.06642600148916245
v -0.027383999899029732 -0.07536999881267548 0.06597299873828888
v -0.026548000052571297 -0.0668250024318695 0.06472700089216232
v -0.025738999247550964 -0.06695599853992462 0.06538499891757965
v -0.02600800059735775 -0.0669339969754219 0.06596200168132782
v -0.027480000630021095 -0.06768900156021118 0.06511999666690826
v -0.028123000636696815 -0.0675949975848198 0.06389100104570389
v -0.026342999190092087 -0.06788299977779388 0.05958399921655655
v -0.027900999411940575 -0.06763099879026413 0.061344001442193985
v -0.02747499942779541 -0.07519599795341492 0.06608399748802185
v -0.026335999369621277 -0.06774400174617767 0.06606899946928024
v 0 0 0
v 0 0 0
v 0 0 0
v 0 0 0
v 0 0 0
v 0 0 0
v 0 0 0
v 0 0 0
v 0 0 0
v 0 0 0
v 0 0 0
v 0 0 0
v 0 0 0
v 0 0 0
v 0 0 0
v 0 0 0
v 0 0 0
v 0 0 0
v 0 0 0
v 0 0 0
v 0 0 0
v 0 0 0
v 0 0 0
v 0 0 0
v 0 0 0
v 0 0 0
v 0 0 0
v 0 0 0
v 0 0 0
v 0 0 0
v 0 0 0
v 0 0 0
v 0 0 0
v 0 0 0
v 0 0 0
v 0 0 0
v 0 0 0
v 0 0 0
v 0 0 0
v 0 0 0
v 0 0 0
v 0 0 0
v 0 0 0
v 0 0 0
v 0 0 0
v 0 0 0
v 0 0 0
v 0 0 0
v 0 0 0
v 0 0 0
v 0 0 0
v 0 0 0
v 0 0 0
v 0 0 0
v 0 0 0
v 0 0 0
v 0 0 0
v 0 0 0
v 0 0 0
v 0 0 0
v 0 0 0
v 0 0 0
v 0 0 0
v 0 0 0
v 0 0 0
v 0 0 0
v 0 0 0
v 0 0 0
v 0 0 0
v 0 0 0
v 0 0 0
v 0 0 0
v 0 0 0
v 0 0 0
v 0 0 0
v 0 0 0
v 0 0 0
v 0 0 0
v 0 0 0
v 0 0 0
v 0 0 0
v 0 0 0
vn -0.16630514284529102 -0.9860304782847694 0.009300287991032653
vn -0.16630514284529102 -0.9860304782847694 0.009300287991032653
vn -0.9686222120731404 -0.24840571099918882 0.00810018651168042
vn -0.13209350500466868 -0.7950608786498795 0.5919708651412359
vn -0.4239010797923402 -0.6467016319578173 0.6341016273232422
vn -0.20099066685476544 -0.9785545109681758 -0.045097903511260355
vn -0.16319477438236668 -0.9865683244701202 -0.007099772285662028
vn -0.13200367837415727 -0.9897276646876527 0.05490153593131501
vn -0.10240154775561694 -0.9945150674163215 0.021300321574186324
vn 0.2678921270177724 -0.889073924090194 0.3711891240119484
vn -0.5179970947373043 -0.2763984547726496 0.8094954626450996
vn -0.16240202310567167 -0.9866121666538571 0.014900184621902124
vn -0.046800013830786684 -0.8827003278157498 -0.4676001389856572
vn -0.731933407893416 -0.4214192588311591 0.5354244061450008
vn -0.28520943823657885 -0.9470313491642919 -0.14760487810650458
vn -0.17369927613707664 -0.9847958171712469 0.00239998988986587
vn -0.021100023462501262 -0.9963011004461649 -0.0833000975968377
vn -0.9062089538200327 -0.4183041552237089 0.06170061376502737
vn -0.32520774438991085 -0.892021310262002 -0.313907478450717
vn -0.13200367837415727 -0.9897276646876527 0.05490153593131501
vn -0.750405434967312 -0.5727041991614815 0.330002399134196
vn 0.38119669633032693 -0.5969948593888607 -0.705893913113096
vn 0.004699947670243728 0.00009999888923265969 0.9999889501850104
vn 0.8358952928392968 -0.16309907894425174 -0.5240970805648921
vn 0.5731114203238469 -0.06960139489364867 -0.8165163474929581
vn 0.6851853376804244 -0.08069828440684836 0.7238845487517704
vn -0.4361945968131713 0.05129936688106358 0.89838891838034
vn -0.6538696946846738 0.553374295691219 -0.5159760762295269
vn -0.6208969191289818 0.08099960322678587 0.7796961460038404
vn -0.6208969191289818 0.08099960322678587 0.7796961460038404
vn -0.8941161611336109 0.14530262316581183 -0.42360764641449605
vn -0.8728962345565641 0.1392993895873554 0.46759795097665036
vn -0.8695194661543076 0.14010314547224234 0.4736106065192286
vn -0.22878822822316253 0.050797388264034224 -0.972149974012271
vn -0.7326284567997234 0.1324051604300364 -0.6676259564896739
vn -0.8377730311356332 -0.09099707073662562 -0.5383826533416236
vn -0.9052464846058489 0.1375070643693997 -0.4020206578737742
vn 1 0 0
vn 1 0 0
vn 1 0 0
vn 1 0 0
vn 1 0 0
vn 1 0 0
vn 1 0 0
vn 1 0 0
vn 1 0 0
vn 1 0 0
vn 1 0 0
vn 1 0 0
vn 1 0 0
vn 1 0 0
vn 1 0 0
vn 1 0 0
vn 1 0 0
vn 1 0 0
vn 1 0 0
vn 1 0 0
vn 1 0 0
vn 1 0 0
vn 1 0 0
vn 1 0 0
vn 1 0 0
vn 1 0 0
vn 1 0 0
vn 1 0 0
vn 1 0 0
vn 1 0 0
vn 1 0 0
vn 1 0 0
vn 1 0 0
vn 1 0 0
vn 1 0 0
vn 1 0 0
vn 1 0 0
vn 1 0 0
vn 1 0 0
vn 1 0 0
vn 1 0 0
vn 1 0 0
vn 1 0 0
vn 1 0 0
vn 1 0 0
vn 1 0 0
vn 1 0 0
vn 1 0 0
vn 1 0 0
vn 1 0 0
vn 1 0 0
vn 1 0 0
vn 1 0 0
vn 1 0 0
vn 1 0 0
vn 1 0 0
vn 1 0 0
vn 1 0 0
vn 1 0 0
vn 1 0 0
vn 1 0 0
vn 1 0 0
vn 1 0 0
vn 1 0 0
vn 1 0 0
vn 1 0 0
vn 1 0 0
vn 1 0 0
vn 1 0 0
vn 1 0 0
vn 1 0 0
vn 1 0 0
vn 1 0 0
vn 1 0 0
vn 1 0 0
vn 1 0 0
vn 1 0 0
vn 1 0 0
vn 1 0 0
vn 1 0 0
vn 1 0 0
vn 1 0 0
f 1//1 2//2 3//3
f 4//4 5//5 6//6
f 7//7 6//6 8//8
f 9//9 6//6 7//7
f 9//9 10//10 6//6
f 11//11 2//2 12//12
f 11//11 9//9 2//2
f 13//13 14//14 15//15
f 15//15 12//12 1//1
f 13//13 12//12 14//14
f 9//9 11//11 16//16
f 2//2 7//7 3//3
f 17//17 9//9 16//16
f 7//7 8//8 18//18
f 19//19 15//15 1//1
f 3//3 8//8 20//20
f 21//21 3//3 20//20
f 22//22 17//17 13//13
f 17//17 16//16 12//12
f 13//13 17//17 12//12
f 19//19 1//1 3//3
f 23//23 4//4 10//10
f 24//24 17//17 22//22
f 25//25 24//24 22//22
f 25//25 22//22 13//13
f 26//26 23//23 10//10
f 26//26 10//10 9//9
f 25//25 13//13 15//15
f 24//24 26//26 9//9
f 24//24 9//9 17//17
f 27//27 5//5 4//4
f 23//23 27//27 4//4
f 6//6 5//5 28//28
f 29//29 8//8 30//30
f 8//8 6//6 30//30
f 6//6 28//28 30//30
f 30//30 28//28 31//31
f 20//20 8//8 29//29
f 32//32 33//33 21//21
f 34//34 25//25 15//15
f 34//34 15//15 19//19
f 35//35 34//34 19//19
f 35//35 19//19 3//3
f 33//33 35//35 3//3
f 33//33 3//3 21//21
f 20//20 29//29 32//32
f 20//20 32//32 21//21
f 5//5 36//36 28//28
f 37//37 36//36 5//5
f 27//27 37//37 5//5
f 1//1 1//1 1//1
f 1//1 1//1 1//1
f 1//1 1//1 1//1
f 1//1 1//1 1//1
f 1//1 1//1 1//1
f 1//1 1//1 1//1
f 1//1 1//1 1//1
f 1//1 1//1 1//1
f 1//1 1//1 1//1
f 1//1 1//1 1//1
f 1//1 1//1 1//1
f 1//1 1//1 1//1
f 1//1 1//1 1//1
f 1//1 1//1 1//1
f 1//1 1//1 1//1
f 1//1 1//1 1//1
f 1//1 1//1 1//1
f 1//1 1//1 1//1
f 1//1 1//1 1//1
f 1//1 1//1 1//1
f 1//1 1//1 1//1
f 1//1 1//1 1//1
f 1//1 1//1 1//1
f 1//1 1//1 1//1
f 1//1 1//1 1//1
f 1//1 1//1 1//1
f 1//1 1//1 1//1
f 1//1 1//1 1//1
f 1//1 1//1 1//1
f 1//1 1//1 1//1
f 1//1 1//1 1//1
f 1//1 1//1 1//1
f 1//1 1//1 1//1
f 1//1 1//1 1//1
f 1//1 1//1 1//1
f 1//1 1//1 1//1
f 1//1 1//1 1//1
f 1//1 1//1 1//1
f 1//1 1//1 1//1
f 1//1 1//1 1//1
f 1//1 1//1 1//1
f 1//1 1//1 1//1
f 1//1 1//1 1//1
f 1//1 1//1 1//1
f 1//1 1//1 1//1
f 1//1 1//1 1//1
f 1//1 1//1 1//1
f 1//1 1//1 1//1
f 1//1 1//1 1//1
f 1//1 1//1 1//1
f 1//1 1//1 1//1
f 1//1 1//1 1//1
f 1//1 1//1 1//1
f 1//1 1//1 1//1
f 1//1 1//1 1//1
f 1//1 1//1 1//1
f 1//1 1//1 1//1
f 1//1 1//1 1//1
f 1//1 1//1 1//1
f 1//1 1//1 1//1
f 1//1 1//1 1//1
f 1//1 1//1 1//1
f 1//1 1//1 1//1
f 1//1 1//1 1//1
f 1//1 1//1 1//1
f 1//1 1//1 1//1
f 1//1 1//1 1//1
f 1//1 1//1 1//1
f 1//1 1//1 1//1
f 1//1 1//1 1//1
f 1//1 1//1 1//1
f 1//1 1//1 1//1
f 1//1 1//1 1//1
f 1//1 1//1 1//1
f 1//1 1//1 1//1
f 1//1 1//1 1//1
f 1//1 1//1 1//1
f 1//1 1//1 1//1
f 1//1 1//1 1//1
f 1//1 1//1 1//1
f 1//1 1//1 1//1
f 1//1 1//1 1//1
f 1//1 1//1 1//1
f 1//1 1//1 1//1
f 1//1 1//1 1//1
f 1//1 1//1 1//1
f 1//1 1//1 1//1
f 1//1 1//1 1//1
f 1//1 1//1 1//1
f 1//1 1//1 1//1
f 1//1 1//1 1//1
f 1//1 1//1 1//1
f 1//1 1//1 1//1
f 1//1 1//1 1//1
f 1//1 1//1 1//1
f 1//1 1//1 1//1
f 1//1 1//1 1//1
f 1//1 1//1 1//1
f 1//1 1//1 1//1
f 1//1 1//1 1//1
f 1//1 1//1 1//1
f 1//1 1//1 1//1
f 1//1 1//1 1//1
f 1//1 1//1 1//1
f 1//1 1//1 1//1
f 1//1 1//1 1//1
f 1//1 1//1 1//1
f 1//1 1//1 1//1
f 1//1 1//1 1//1
f 1//1 1//1 1//1
f 1//1 1//1 1//1
f 1//1 1//1 1//1
f 1//1 1//1 1//1
f 1//1 1//1 1//1
f 1//1 1//1 1//1
f 1//1 1//1 1//1
f 1//1 1//1 1//1
f 1//1 1//1 1//1
f 1//1 1//1 1//1
f 1//1 1//1 1//1
f 1//1 1//1 1//1
f 1//1 1//1 1//1
f 1//1 1//1 1//1
f 1//1 1//1 1//1
f 1//1 1//1 1//1
f 1//1 1//1 1//1
f 1//1 1//1 1//1
f 1//1 1//1 1//1
f 1//1 1//1 1//1
f 1//1 1//1 1//1
f 1//1 1//1 1//1
f 1//1 1//1 1//1
f 1//1 1//1 1//1
f 1//1 1//1 1//1
f 1//1 1//1 1//1
f 1//1 1//1 1//1
f 1//1 1//1 1//1
f 1//1 1//1 1//1
