mtllib link6_8.mtl
o mesh_0
usemtl material408
v 0.11331900209188461 0.07165700197219849 -0.0011259999591857195
v 0.11388500034809113 0.07130999863147736 -0.0006079999729990959
v 0.11375000327825546 0.07138600200414658 -0.0014880000380799174
v 0.11308100074529648 0.07180500030517578 -0.0007539999787695706
v 0.11373800039291382 0.07140400260686874 -0.00039999998989515007
v 0.11518000066280365 0.07045900076627731 -0.00020300000323913991
v 0.11519800126552582 0.07044599950313568 0.00008600000001024455
v 0.11591500043869019 0.06994199752807617 -0.0002410000015515834
v 0.11575300246477127 0.07005400210618973 -0.000770999991800636
v 0.11506800353527069 0.07053399831056595 -0.0004820000031031668
v 0.11549700051546097 0.07023199647665024 -0.001158999977633357
v 0.11485400050878525 0.07067800313234329 -0.0007140000234358013
v 0.11522799730300903 0.07041600346565247 -0.0013940000208094716
v 0.11482899636030197 0.0706849992275238 -0.0016009999671950936
v 0.11456099897623062 0.070872001349926 -0.0008420000085607171
v 0.11428000032901764 0.07104700058698654 -0.0016469999682158232
v 0.11431699991226196 0.07103200256824493 -0.0008410000009462237
v 0.11407899856567383 0.07118599861860275 -0.0007650000043213367
v 0.11292199790477753 0.07190199941396713 -0.0002229999954579398
v 0.11365199834108353 0.07145799696445465 -0.00008800000068731606
v 0.11414600163698196 0.0711430013179779 0.0007970000151544809
v 0.11351999640464783 0.0715320035815239 0.001323999953456223
v 0.11400800198316574 0.07122199982404709 0.001597000053152442
v 0.11382599920034409 0.07134699821472168 0.0005540000274777412
v 0.11328300088644028 0.07168000191450119 0.0010760000441223383
v 0.11309400200843811 0.0717960000038147 0.0007830000249668956
v 0.11367099732160568 0.0714460015296936 0.00020300000323913991
v 0.11294600367546082 0.07188700139522552 0.00033999999868683517
v 0.11491300165653229 0.0706389993429184 0.0006670000148005784
v 0.11531899869441986 0.07035499811172485 0.0013299999991431832
v 0.11561600118875504 0.07015000283718109 0.001006999984383583
v 0.11511500179767609 0.07050299644470215 0.00039599998854100704
v 0.11495999991893768 0.07059700042009354 0.0015450000064447522
v 0.11581700295209885 0.07000900059938431 0.0006169999833218753
v 0.1146249994635582 0.07083000242710114 0.000826000003144145
v 0.11455799639225006 0.07086499780416489 0.0016479999758303165
v 0.11590900272130966 0.06994599848985672 0.00023299999884329736
v 0.1143840029835701 0.07098899781703949 0.0008490000036545098
vn 0.526896590894469 0.8498945189081833 -0.007699950234526402
vn 0.526896590894469 0.8498945189081833 -0.007699950234526402
vn 0.526896590894469 0.8498945189081833 -0.007699950234526402
vn 0.5228189212744011 0.8524308088997622 -0.004700169780822891
vn 0.5228189212744011 0.8524308088997622 -0.004700169780822891
vn 0.575272266503712 0.817960616171952 -0.0014999277592045114
vn 0.575272266503712 0.817960616171952 -0.0014999277592045114
vn 0.575272266503712 0.817960616171952 -0.0014999277592045114
vn 0.5752718753566312 0.8179600600128498 -0.0018999072187015885
vn 0.571782325154227 0.8203746496301639 -0.007099780659408306
vn 0.5732060015083865 0.8194086097561709 -0.002100021958623568
vn 0.5650833313898898 0.8249756325210503 -0.009799710801714047
vn 0.56752828688588 0.8233410480922239 -0.004600229426502097
vn 0.5619940310842211 0.8270912288079414 -0.009099904102637701
vn 0.5550017661544236 0.8318026202624252 -0.008800027842795816
vn 0.5483106189468686 0.8362161511025462 -0.009900191177214718
vn 0.5483106189468686 0.8362161511025462 -0.009900191177214718
vn 0.541405248767177 0.8407080973015267 -0.00950009152574283
vn 0.5202107260268299 0.8540175578349632 -0.005900121714307423
vn 0.5202107260268299 0.8540175578349632 -0.005900121714307423
vn 0.5328002393824725 0.846200339670865 0.008300003306807234
vn 0.5328002393824725 0.846200339670865 0.008300003306807234
vn 0.5328002393824725 0.846200339670865 0.008300003306807234
vn 0.5335915542834403 0.8456866832111444 0.00969984725220259
vn 0.525111799746617 0.8510191458989311 0.004900110235746865
vn 0.5230861832217939 0.8522774461017154 0.001999947197729922
vn 0.5243006515837917 0.8515010667100349 0.007400009492158879
vn 0.5196040121559213 0.8544066189677089 0.0010000078188617469
vn 0.5696085243571032 0.8219123303568495 0.002500037419018671
vn 0.5696085243571032 0.8219123303568495 0.002500037419018671
vn 0.5696085243571032 0.8219123303568495 0.002500037419018671
vn 0.5672107399517362 0.8235155632508119 0.00970018386950425
vn 0.5631901812336034 0.8262856238405015 0.00829985521405544
vn 0.5742065732960627 0.8187094241211229 0.0013000149432591944
vn 0.5560113308861225 0.8311169328124012 0.009800199934147245
vn 0.5560113308861225 0.8311169328124012 0.009800199934147245
vn 0.5758620643058676 0.8175461290061126 0.0010999275000324227
vn 0.543818904881569 0.8391291796440347 0.011100385729346058
f 1//1 2//2 3//3
f 1//1 4//4 5//5
f 1//1 5//5 2//2
f 6//6 7//7 8//8
f 6//6 8//8 9//9
f 10//10 6//6 9//9
f 11//11 10//10 9//9
f 12//12 10//10 11//11
f 13//13 12//12 11//11
f 14//14 12//12 13//13
f 14//14 15//15 12//12
f 16//16 17//17 15//15
f 16//16 15//15 14//14
f 16//16 18//18 17//17
f 3//3 18//18 16//16
f 19//19 20//20 5//5
f 4//4 19//19 5//5
f 3//3 2//2 18//18
f 21//21 22//22 23//23
f 24//24 22//22 21//21
f 25//25 22//22 24//24
f 26//26 25//25 24//24
f 26//26 24//24 27//27
f 28//28 26//26 27//27
f 28//28 27//27 20//20
f 19//19 28//28 20//20
f 29//29 30//30 31//31
f 32//32 29//29 31//31
f 29//29 33//33 30//30
f 32//32 31//31 34//34
f 35//35 36//36 33//33
f 35//35 33//33 29//29
f 7//7 34//34 37//37
f 7//7 32//32 34//34
f 7//7 37//37 8//8
f 38//38 23//23 36//36
f 38//38 36//36 35//35
f 21//21 23//23 38//38
f 1//1 1//1 1//1
f 1//1 1//1 1//1
f 1//1 1//1 1//1
f 1//1 1//1 1//1
f 1//1 1//1 1//1
f 1//1 1//1 1//1
f 1//1 1//1 1//1
f 1//1 1//1 1//1
f 1//1 1//1 1//1
f 1//1 1//1 1//1
f 1//1 1//1 1//1
f 1//1 1//1 1//1
f 1//1 1//1 1//1
f 1//1 1//1 1//1
f 1//1 1//1 1//1
f 1//1 1//1 1//1
f 1//1 1//1 1//1
f 1//1 1//1 1//1
f 1//1 1//1 1//1
f 1//1 1//1 1//1
f 1//1 1//1 1//1
f 1//1 1//1 1//1
f 1//1 1//1 1//1
f 1//1 1//1 1//1
f 1//1 1//1 1//1
f 1//1 1//1 1//1
f 1//1 1//1 1//1
f 1//1 1//1 1//1
f 1//1 1//1 1//1
f 1//1 1//1 1//1
f 1//1 1//1 1//1
f 1//1 1//1 1//1
f 1//1 1//1 1//1
f 1//1 1//1 1//1
f 1//1 1//1 1//1
f 1//1 1//1 1//1
f 1//1 1//1 1//1
f 1//1 1//1 1//1
